<svg enable-background="new 0 0 360 87.7" viewBox="0 0 360 87.7" xmlns="http://www.w3.org/2000/svg" xmlns:xlink="http://www.w3.org/1999/xlink"><clipPath id="a"><path d="m-29.4.2h445.7v83.1h-445.7z"/></clipPath><g clip-path="url(#a)" fill="#414142"><path d="m23.8 35h-14.5v9.4h13.3v7.5h-13.3v14.7h-7.9v-39.1h22.4z"/><path d="m34.3 27.5h8.1l12.4 39.1h-8.3l-2.1-7.1h-12.2l-2.1 7.1h-8.2zm8.5 25.3-2.7-9.1c-.7-2.5-1.3-5-1.8-7.8-.4 2.8-1.1 5.3-1.7 7.8l-2.7 9.1z"/><path d="m58.5 27.5h13.7c7.1 0 13.3 4.1 13.3 12.7 0 5.6-2.5 9.5-6.7 11.4l8.1 15h-8.6l-7.3-13.7h-4.6v13.7h-7.9zm13.5 18.2c3.2 0 5.6-1.8 5.6-5.4s-2.3-5.5-5.6-5.5h-5.6v10.9z"/><path d="m90.6 27.5h7.1l9.7 19 9.8-19h7.1v39.1h-7.7v-14.1c0-3.9.2-7.7.7-11.5l-8.3 16.6h-3l-8.4-16.6c.5 3.8.8 7.6.8 11.5v14.1h-7.8z"/><path d="m139.8 47.3c0-13.1 7.3-20.5 17-20.5 2.6 0 5.1.6 7.4 1.6v7.5c-1.8-.9-4-1.4-6.5-1.4-5.8 0-9.8 4.3-9.8 12.8-.1 8 3.6 12.3 9.5 12.3 2.3 0 4.7-.5 7-1.5v7.7c-2.5.9-5.1 1.5-8 1.5-9 0-16.7-6.5-16.6-20z"/><path d="m167.7 47c0-12.2 4.7-20.3 15.2-20.3s15.2 8.1 15.2 20.3-4.7 20.3-15.2 20.3-15.2-8.1-15.2-20.3zm22.3 0c0-8.1-2.2-12.6-7.1-12.6s-7.1 4.5-7.1 12.6 2.2 12.6 7.1 12.6c5 0 7.1-4.5 7.1-12.6z"/><path d="m203 54.2v-26.7h7.9v26.1c0 4.5 2.2 6.2 6 6.2 3.7 0 5.9-1.7 5.9-6.2v-26.1h7.9v26.7c0 9.3-5.7 13.1-13.8 13.1-8.2 0-13.9-3.8-13.9-13.1z"/><path d="m236 27.5h7.4l13.1 25.2c-.4-3.4-.7-6.9-.7-10.9v-14.3h7.9v39.1h-7.4l-13.1-25.2c.5 3.4.7 6.9.7 10.9v14.3h-7.9z"/><path d="m277.3 35h-9.4v-7.5h26.6v7.5h-9.4v31.6h-7.9v-31.6z"/><path d="m298.9 27.5h13.7c7.1 0 13.3 4.1 13.3 12.7 0 5.6-2.5 9.5-6.7 11.4l8.1 15h-8.6l-7.3-13.7h-4.6v13.7h-7.9zm13.5 18.2c3.2 0 5.6-1.8 5.6-5.4s-2.3-5.5-5.6-5.5h-5.6v10.9z"/><path d="m337.4 51-11.8-23.5h8.6l7.1 15.7 7.2-15.7h8.6l-11.9 23.5v15.5h-7.9v-15.5z"/></g><g fill="#fff"><path clip-path="url(#a)" d="m41.2 4c.6 0 1-.2 1.4-.7s.6-1 .6-1.5c0-.4-.1-.8-.4-1.1s-.6-.5-1.1-.5c-.6 0-1 .2-1.4.7s-.6 1-.6 1.5c0 .4.1.8.4 1.1.3.4.6.5 1.1.5"/><path clip-path="url(#a)" d="m85.3 4c.6 0 1-.2 1.4-.7s.6-1 .6-1.5c0-.4-.1-.8-.4-1.1s-.6-.5-1.1-.5c-.6 0-1 .2-1.4.7s-.6 1-.6 1.5c0 .4.1.8.4 1.1.3.4.6.5 1.1.5"/><path clip-path="url(#a)" d="m129.4 4c.6 0 1-.2 1.4-.7s.6-1 .6-1.5c0-.4-.1-.8-.4-1.1s-.6-.5-1.1-.5c-.6 0-1 .2-1.4.7s-.6 1-.6 1.5c0 .4.1.8.4 1.1.3.4.6.5 1.1.5"/><path clip-path="url(#a)" d="m180.3 4c.6 0 1-.2 1.4-.7s.6-1 .6-1.5c0-.4-.1-.8-.4-1.1s-.6-.5-1.1-.5c-.6 0-1 .2-1.4.7s-.6 1-.6 1.5c0 .4.1.8.4 1.1.3.4.6.5 1.1.5"/></g><path clip-path="url(#a)" d="m164.4 17.4c-.8.8-1.6 1.2-2.4 1.2-.6 0-1-.1-1.3-.3s-.5-.3-.8-.3c-.1 0-.2 0-.3.1v-.2c0-.3.1-.7.1-1.3.1-.5.1-1.1.2-1.6.1-.6.1-1.1.2-1.5.1-.5.2-.7.3-.9.2-.4.6-1 1.1-1.7s1.1-1.4 1.8-2.1c.6-.7 1.3-1.3 1.9-1.8.7-.5 1.2-.8 1.7-.8s.9.2 1 .7c.2.5.2.9.2 1.4 0 .7-.2 1.6-.5 2.8s-.8 2.3-1.3 3.4-1.1 2.1-1.9 2.9m-19.9 0c-.8.8-1.6 1.2-2.4 1.2-.6 0-1-.1-1.3-.3s-.5-.3-.8-.3c-.1 0-.2 0-.3.1v-.2c0-.3.1-.7.1-1.3.1-.5.1-1.1.2-1.6.1-.6.1-1.1.2-1.5.1-.5.2-.7.3-.9.2-.4.6-1 1.1-1.7s1.1-1.4 1.8-2.1c.6-.7 1.3-1.3 1.9-1.8.7-.5 1.2-.8 1.7-.8s.9.2 1 .7c.2.5.2.9.2 1.4 0 .7-.2 1.6-.5 2.8s-.8 2.3-1.3 3.4c-.4 1.1-1.1 2.1-1.9 2.9m-7.9 2.9c-.1 2.4-.3 4.9-.6 7.3-.2 2.4-.6 4.8-1 7.2 0 .1-.1.5-.2 1s-.2 1-.3 1.6-.3 1-.4 1.5c-.2.4-.3.7-.5.7-.1 0-.2-.1-.3-.3s-.1-.4-.1-.6-.1-.4-.1-.6v-.4c0-1.1.1-2.4.3-4s.5-3.1.8-4.8c.3-1.6.7-3.2 1.1-4.7.4-1.6.9-2.9 1.3-3.9m52.5-7.4c0-.2 0-.4-.1-.6 0-.2-.2-.3-.5-.3-.2 0-.4.1-.6.3s-.3.4-.5.6c-.3.5-.7 1.2-1.3 1.9-.5.8-1.1 1.5-1.8 2.3-.6.7-1.3 1.4-2 1.9s-1.3.8-1.9.8c-.4 0-.6-.2-.8-.5s-.3-.7-.4-1.1-.2-.8-.2-1.3c0-.4 0-.8 0-1 0-1.3.1-2.6.4-3.8.1-.3.2-.7.3-1.1s.3-.8.4-1.2.3-.8.4-1.2.1-.7.1-1c0-.6-.3-.9-1-.9-.9 0-1.6.3-2 .8s-.8 1.2-1 1.9-.4 1.6-.6 2.6c-.1.5-.2 1-.2 1.4-.1.1-.1.2-.2.2-.5.8-1 1.6-1.7 2.4-.6.8-1.4 1.5-2.2 2.1s-1.7 1.1-2.6 1.4c-.9.4-1.9.6-2.9.6-.4 0-.8 0-1.3-.1.4-.1.8-.2 1.1-.4s.6-.5.9-.7c.6-.5 1.1-1.2 1.5-2 .5-.8.8-1.7 1.2-2.5.3-.9.6-1.8.8-2.7s.3-1.7.3-2.5c0-.6-.1-1.1-.2-1.7s-.3-1.1-.6-1.5-.6-.8-1.1-1.1-1-.4-1.7-.4-1.4.2-2.1.6-1.4.9-2.1 1.6c-.7.6-1.3 1.3-1.8 1.9-.6.7-1 1.2-1.4 1.8.1-.5.1-1 .2-1.5s.1-1 .1-1.5c0-.3-.1-.5-.2-.8s-.3-.6-.5-.8c-.2-.3-.4-.5-.7-.7s-.5-.3-.8-.3c-.4 0-.6.1-.8.4.2.2 0 .5 0 .8-.1.3-.1.7-.1 1.1s0 .7-.1 1c-.2 1.6-.3 2.9-.4 3.9 0 .3-.1.7-.1.9-.1.3-.3.5-.4.7-.5.8-1 1.6-1.7 2.4s-1.4 1.5-2.2 2.1-1.7 1.1-2.6 1.4c-.9.4-1.9.6-2.9.6-.4 0-.8 0-1.3-.1.4-.1.8-.2 1.1-.4s.6-.5.9-.7c.6-.5 1.1-1.2 1.5-2 .5-.8.8-1.7 1.2-2.5.3-.9.6-1.8.8-2.7s.3-1.7.3-2.5c0-.6-.1-1.1-.2-1.7s-.3-1.1-.6-1.5-.6-.8-1.1-1.1-1-.4-1.7-.4-1.4.2-2.1.6-1.4.9-2.1 1.6c-.7.6-1.3 1.3-1.8 1.9-.6.7-1 1.2-1.4 1.8.1-.5.1-1 .2-1.5s.1-1 .1-1.5c0-.3-.1-.5-.2-.8s-.3-.6-.5-.8c-.2-.3-.4-.5-.7-.7s-.5-.3-.8-.3c-.4 0-.6.1-.8.4s-.3.6-.4.9-.1.7-.1 1.1 0 .7-.1 1c-.2 1.6-.3 2.9-.4 3.9 0 .4-.1.8-.1 1.1-.3.5-.6 1-1.1 1.6-.5.8-1.1 1.5-1.8 2.3-.6.7-1.3 1.4-2 1.9s-1.3.8-1.9.8c-.4 0-.6-.2-.8-.5s-.3-.7-.4-1.1-.2-.8-.2-1.3c0-.4 0-.8 0-1 0-1.3.1-2.6.4-3.8.1-.3.2-.7.3-1.1s.3-.8.4-1.2.3-.8.4-1.2.1-.7.1-1c0-.6-.3-.9-1-.9-.9 0-1.6.3-2 .8s-.8 1.2-1 1.9-.4 1.6-.6 2.6c-.1.6-.2 1.2-.2 1.8 0 0-.1.1-.1.1-.2.2-.3.4-.5.6-.3.4-.7 1-1.3 1.7s-1.2 1.3-1.9 2c-.7.6-1.4 1.2-2.1 1.7s-1.3.7-1.8.7c.3-.5.6-1 .7-1.6.2-.6.2-1.1.2-1.7 0-.9-.1-1.8-.4-2.7s-.6-1.7-1.1-2.6c-.4-.8-.9-1.7-1.3-2.5-.5-.8-.8-1.6-1.2-2.5.3-.6.5-1.3.7-2.1.2-.7.3-1.4.3-2.1 0-.2 0-.5-.1-.7 0-.3-.1-.5-.2-.7s-.2-.4-.4-.6-.4-.2-.7-.2c-.5 0-1 .2-1.4.6s-.7.8-1 1.3-.5 1-.6 1.6-.2 1.1-.2 1.5c0 .8.1 1.5.4 2.2-.8 2.4-1.8 4.5-3.2 6.5 0 .1-.1.1-.1.2-.3.4-.7 1-1.3 1.7s-1.2 1.3-1.9 2c-.7.6-1.4 1.2-2.1 1.7s-1.3.7-1.8.7c.3-.5.6-1 .7-1.6.2-.6.2-1.1.2-1.7 0-.9-.1-1.8-.4-2.7s-.6-1.7-1.1-2.6c-.4-.8-.9-1.7-1.3-2.5-.5-.8-.8-1.6-1.2-2.5.3-.6.5-1.3.7-2.1.2-.7.3-1.4.3-2.1 0-.2 0-.5-.1-.7 0-.3-.1-.5-.2-.7s-.2-.4-.4-.6-.4-.2-.7-.2c-.5 0-1 .2-1.4.6s-.7.8-1 1.3-.5 1-.6 1.6-.2 1.1-.2 1.5c0 .8.1 1.5.4 2.2-.6 1.8-1.3 3.5-2.3 5.1-.3.5-.7 1.2-1.3 1.9-.2.3-.5.6-.7 1 0 0 0 .1-.1.1 0 0-.1.1-.1.1-.3.4-.6.7-.9 1.1-.6.7-1.3 1.4-2 1.9s-1.3.8-1.9.8c-.4 0-.7-.2-.8-.5-.2-.3-.3-.7-.4-1.1s-.2-.8-.2-1.3c0-.4 0-.8 0-1 0-1.3.1-2.6.4-3.8.1-.3.2-.7.3-1.1s.3-.8.4-1.2.3-.8.4-1.2.1-.7.1-1c0-.6-.3-.9-1-.9-.9 0-1.6.3-2 .8s-.8 1.2-1 1.9-.4 1.6-.6 2.6c-.1.6-.2 1.2-.2 1.8 0 0-.1.1-.1.1-.2.2-.3.4-.5.6-.3.4-.7 1-1.3 1.7s-1.2 1.3-1.9 2c-.7.6-1.4 1.2-2.1 1.7s-1.3.7-1.8.7c.3-.5.6-1 .7-1.6.2-.6.2-1.1.2-1.7 0-.9-.1-1.8-.4-2.7s-.6-1.7-1.1-2.6c-.4-.8-.9-1.7-1.3-2.5.4-.9 0-1.7-.3-2.5.2-.6.5-1.3.7-2s.3-1.4.3-2.1c0-.2 0-.5-.1-.7 0-.3-.1-.5-.2-.7s-.2-.4-.4-.6-.4-.2-.7-.2c-.5 0-1 .2-1.4.6s-.7.8-1 1.3-.5 1-.6 1.6-.2 1.1-.2 1.5c0 .8.1 1.5.4 2.2-.8 2.4-1.8 4.5-3.2 6.5 0 .1-.1.1-.1.2-.3.4-.7 1-1.3 1.7s-1.2 1.3-1.9 2c-.7.6-1.4 1.2-2.1 1.7s-1.3.7-1.8.7c.3-.5.6-1 .7-1.6.2-.6.2-1.1.2-1.7 0-.9-.1-1.8-.4-2.7s-.6-1.7-1.1-2.6c-.4-.8-.9-1.7-1.3-2.5-.5-.8-.8-1.6-1.2-2.5.3-.6.5-1.3.7-2.1.2-.7.3-1.4.3-2.1 0-.2 0-.5-.1-.7 0-.3-.1-.5-.2-.7s-.2-.4-.4-.6-.4-.2-.7-.2c-.5 0-1 .2-1.4.6s-.7.8-1 1.3-.5 1-.6 1.6-.2 1.1-.2 1.5c0 .8.1 1.5.4 2.2-.6 1.8-1.3 3.5-2.3 5.1-.3.5-.7 1.2-1.3 1.9-.2.3-.5.6-.7.9 0 0 0 .1-.1.1 0 0-.1.1-.1.1-.3.4-.6.7-.9 1.1-.6.7-1.3 1.4-2 1.9s-1.3.8-1.9.8c-.4 0-.6-.2-.8-.5s-.3-.7-.4-1.1-.2-.8-.2-1.3c0-.4 0-.8 0-1 0-1.3.1-2.6.4-3.8.1-.3.2-.7.3-1.1s.3-.8.4-1.2.3-.8.4-1.2.1-.7.1-1c0-.6-.3-.9-1-.9-.9 0-1.6.3-2 .8s-.8 1.2-1 1.9-.4 1.6-.6 2.6c-.1.8-.2 1.5-.2 2.1-.2.1-.3.2-.5.4-.2.3-.4.5-.6.7-.3.4-.7.8-1.2 1.4s-1.1 1.1-1.7 1.7c-.6.5-1.2 1-1.8 1.4s-1.2.6-1.6.6c-.3 0-.5-.1-.7-.3s-.3-.4-.3-.6c-.1-.2-.1-.5-.1-.7 0-.3 0-.5 0-.7 0-1.6.1-3.3.3-4.9s.3-3.3.3-4.9c0-.4-.1-.8-.1-1.2-.1-.4-.3-.8-.5-1.1s-.5-.6-.8-.8-.7-.3-1.2-.3c-.7 0-1.3.2-1.9.6s-1.2.9-1.7 1.5-1 1.2-1.5 1.9c-.5.6-.8 1.2-1.2 1.7-.6.8-1.1 1.6-1.7 2.4s-1.1 1.6-1.6 2.5c-.1.1-.1.2-.3.4-.1.2-.2.3-.3.3s-.1-.1-.2-.3c0-.2-.1-.5-.1-.8s0-.7 0-1.1l.1-6c0-.3 0-.6-.1-1s-.2-.7-.3-1-.3-.6-.6-.8c-.2-.2-.5-.3-.8-.3s-.6.1-1 .3-.7.5-1.1.8-.7.7-1.1 1.2c-.4.4-.8.9-1.1 1.3-.5.9-1.4 2.1-2.3 3.5.1-.8.3-1.6.5-2.5.2-.8.5-1.6.8-2.4.1-.3.3-.6.4-1 .2-.4.3-.8.5-1.2s.4-.8.5-1.2.1-.7.1-1 0-.6-.2-.7c-.1-.2-.3-.3-.7-.3-.5 0-1.2.1-1.8.4-.7.3-1.1.7-1.5 1.3-.1.3-.3.9-.6 1.8-.2.8-.5 1.8-.8 2.9s-.5 2.3-.8 3.5c-.2 1.3-.4 2.5-.6 3.6s-.3 2.2-.5 3.1c-.1.9-.2 1.6-.2 2 0 .3.1.5.2.7s.4.3.6.3c.4 0 .7-.1 1-.4.2-.3.4-.6.6-.9.1-.3.4-.9.8-1.6s.9-1.6 1.4-2.5 1.1-1.9 1.7-2.9 1.2-1.9 1.8-2.7 1.1-1.5 1.6-2 .9-.8 1.2-.8c.2 0 .4.1.4.3v.6 2.6 3.1c0 1.1.1 2.2.2 3.2s.3 1.8.5 2.5.5 1 .8 1 .5-.1.7-.2.3-.3.5-.6.5-.9 1-1.6c.4-.7.9-1.6 1.4-2.5s1.1-1.9 1.7-2.9 1.2-1.9 1.8-2.7 1.1-1.5 1.6-2 .9-.8 1.3-.8c.2 0 .3.1.4.2s.2.3.2.5.1.4.1.6v.5c0 1.3-.1 2.6-.2 3.9s-.2 2.5-.2 3.8c0 .5 0 1.1.1 1.7 0 .7.2 1.3.4 1.9s.5 1.1.9 1.5.9.6 1.6.6 1.5-.2 2.4-.7 1.7-1.1 2.5-1.8 1.6-1.4 2.3-2.2c.5-.6.9-1.1 1.3-1.5v.5c.1.8.3 1.6.6 2.4.3.7.7 1.4 1.2 1.9s1.2.8 2 .8 1.5-.2 2.3-.7 1.6-1.1 2.3-1.8 1.4-1.4 2.1-2.2c0-.1.1-.1.1-.1s.1-.1.1-.1c.4-.4.8-.9 1.2-1.6.4-.6.8-1.3 1.2-1.9.4-.7.7-1.4 1-2.1s.5-1.3.7-1.9c.3.5.7 1.1 1 1.8.4.7.7 1.4 1 2.1s.5 1.5.7 2.2.3 1.4.3 2.1c0 1.1-.3 2-.9 2.6-.6.7-1.4 1-2.6 1-.6 0-1.1 0-1.6-.1s-1-.3-1.4-.7c.1.1 0 0-.2-.1s-.4-.2-.6-.2c-.5 0-.7.2-.7.6 0 .2 0 .4.1.5s.2.3.3.4c.6.6 1.4 1 2.4 1.1.9.2 1.8.3 2.6.3 1.5 0 2.9-.2 4.2-.5 1.3-.4 2.4-.9 3.4-1.5 1-.7 2-1.5 2.9-2.5.6-.7 1.2-1.4 1.7-2.2.3-.3.6-.7.8-1.1.4-.6.8-1.3 1.2-1.9.4-.7.7-1.4 1-2.1s.5-1.3.7-1.9c.3.5.7 1.1 1 1.8.4.7.7 1.4 1 2.1s.5 1.5.7 2.2.3 1.4.3 2.1c0 1.1-.3 2-.9 2.6-.6.7-1.4 1-2.6 1-.6 0-1.1 0-1.6-.1s-1-.3-1.4-.7c.1.1 0 0-.2-.1s-.4-.2-.6-.2c-.5 0-.7.2-.7.6 0 .2 0 .4.1.5s.2.3.3.4c.6.6 1.4 1 2.4 1.1.9.2 1.8.3 2.6.3 1.5 0 2.9-.2 4.2-.5 1.3-.4 2.4-.9 3.4-1.5 1-.7 2-1.5 2.9-2.5.6-.7 1.2-1.5 1.8-2.3v.5c.1.8.3 1.6.6 2.4.3.7.7 1.4 1.2 1.9s1.2.8 2 .8 1.5-.2 2.3-.7 1.6-1.1 2.3-1.8 1.4-1.4 2.1-2.2c0 0 .1-.1.1-.1s.1-.1.1-.1c.4-.4.8-.9 1.2-1.6.4-.6.8-1.3 1.2-1.9.4-.7.7-1.4 1-2.1s.5-1.3.7-1.9c.3.5.7 1.1 1 1.8.4.7.7 1.4 1 2.1s.5 1.5.7 2.2.3 1.4.3 2.1c0 1.1-.3 2-.9 2.6-.6.7-1.4 1-2.6 1-.6 0-1.1 0-1.6-.1s-1-.3-1.4-.7c.1.1 0 0-.2-.1s-.4-.2-.6-.2c-.5 0-.7.2-.7.6 0 .2 0 .4.1.5s.2.3.3.4c.6.6 1.4 1 2.4 1.1.9.2 1.8.3 2.6.3 1.5 0 2.9-.2 4.2-.5 1.3-.4 2.4-.9 3.4-1.5 1-.7 2-1.5 2.9-2.5.6-.7 1.2-1.4 1.7-2.2.3-.3.6-.7.8-1.1.4-.6.8-1.3 1.2-1.9.4-.7.7-1.4 1-2.1s.5-1.3.7-1.9c.3.5.7 1.1 1 1.8.4.7.7 1.4 1 2.1s.5 1.5.7 2.2.3 1.4.3 2.1c0 1.1-.3 2-.9 2.6-.6.7-1.4 1-2.6 1-.6 0-1.1 0-1.6-.1s-1-.3-1.4-.7c.1.1 0 0-.2-.1s-.4-.2-.6-.2c-.5 0-.7.2-.7.6 0 .2 0 .4.1.5s.2.3.3.4c.6.6 1.4 1 2.4 1.1.9.2 1.8.3 2.6.3 1.5 0 2.9-.2 4.2-.5 1.3-.4 2.4-.9 3.4-1.5 1-.7 2-1.5 2.9-2.5.6-.7 1.2-1.5 1.8-2.3v.5c.1.8.3 1.6.6 2.4.3.7.7 1.4 1.2 1.9s1.2.8 2 .8 1.5-.2 2.3-.7 1.6-1.1 2.3-1.8 1.4-1.4 2.1-2.2c.1-.2.3-.3.4-.5-.5 1.4-1 3-1.5 4.7-.6 1.8-1.1 3.6-1.5 5.5-.5 1.9-.8 3.7-1.1 5.5s-.4 3.5-.4 5.1c0 .3 0 .8.1 1.3s.2 1 .3 1.4c.2.5.4.8.7 1.2.3.3.7.5 1.2.5.4 0 .7-.1 1-.3s.6-.4.8-.7c.3-.3.5-.6.7-.9s.3-.6.4-.9c.4-1.1.8-2.4 1.1-3.9.3-1.6.6-3.2.8-4.9s.4-3.4.6-5.1.3-3.2.4-4.5l.1-1.1c.3.5.7.8 1.3 1.1.5.3 1.1.5 1.8.7.6.2 1.3.3 1.9.3.6.1 1.2.1 1.7.1 1.2 0 2.4-.2 3.5-.5 1.1-.4 2-.8 2.9-1.5.9-.6 1.7-1.4 2.5-2.3.2-.3.4-.5.7-.8-.5 1.4-1 3-1.5 4.7-.6 1.8-1.1 3.6-1.5 5.5-.1.2-.1.4-.1.6.6-.2 1.2-.3 1.9-.4.2-1 .5-1.9.7-2.9.4-1.5.8-2.8 1.3-3.8-.1 2.4-.3 4.9-.6 7.3s-.6 4.8-1 7.2c0 .1-.1.5-.2 1s-.2 1-.3 1.6-.3 1-.4 1.5c-.2.4-.3.7-.5.7-.1 0-.2-.1-.3-.3s-.1-.4-.1-.6-.1-.4-.1-.6v-.4c0-.6 0-1.2.1-1.9-.7.4-1.3.9-1.9 1.5v.1c0 .3 0 .8.1 1.3s.2 1 .3 1.4c.2.5.4.8.7 1.2.3.3.7.5 1.2.5.4 0 .7-.1 1-.3s.6-.4.8-.7c.3-.3.5-.6.7-.9s.3-.6.4-.9c.4-1.1.8-2.4 1.1-3.9.3-1.6.6-3.2.8-4.9s.4-3.4.6-5.1.3-3.2.4-4.5l.1-1.1c.3.5.7.8 1.3 1.1.5.3 1.1.5 1.8.7.6.2 1.3.3 1.9.3.6.1 1.2.1 1.7.1 1.2 0 2.4-.2 3.5-.5 1.1-.4 2-.8 2.9-1.5.9-.6 1.7-1.4 2.5-2.3.3-.4.6-.8.9-1.2v.6c.1.8.3 1.6.6 2.4.3.7.7 1.4 1.2 1.9s1.2.8 2 .8 1.5-.2 2.3-.7 1.6-1.1 2.3-1.8 1.4-1.4 2.1-2.2c.6-.8 1.1-1.4 1.5-2 .1-.1.2-.3.3-.4.1-.2.3-.4.4-.6s.2-.4.3-.6c.4-.4.5-.6.5-.7" fill="#8cc63e"/></svg>