
 <svg xmlns="http://www.w3.org/2000/svg" viewBox="0 0 512.7 109.8"><g fill="#fff"><path d="m429.3 27.5c4.3 0 7.1-3 7.1-6.9 0-4.5-2.2-7.3-6.7-7.3h-.1c-4.2 0-6.7 3-6.7 7.3 0 4.1 2.6 6.9 6.4 6.9z"></path><path d="m429.3 27.5c4.3 0 7.1-3 7.1-6.9 0-4.5-2.2-7.3-6.7-7.3h-.1c-4.2 0-6.7 3-6.7 7.3 0 4.1 2.6 6.9 6.4 6.9z"></path><path d="m237.1 61.4c1.2-3.6 2.8-6.9 3.9-8.8 1.9-4.1 4.1-5.5 6.3-5.5.8 0 1.8.2 2.2.4.9.4 1.5.6 2.4-.2 1.1-1.1 1.9-2.8 1.9-4.4 0-3.4-2-4.8-4.7-4.8-5.2 0-8 5.6-9.7 11.4-1 3.4-1.5 3.5-3.4 10.4-4.1-5.7-8.2-12.4-11.6-17.9 3.7-2.5 5.4-3.9 7.1-5.4 2.5-2.1 4.8-5.2 4.8-10 0-7.8-5.3-13-13.3-13-9.2 0-14.3 7.2-14.3 15.7 0 6.2 1.7 11.3 5.3 17.2-2.5 2-5.4 4.4-7.3 6.6-2.7 3-4.4 6.5-4.4 12 0 5.2 1.5 9.5 3.5 12.2 3.4 4.5 7.3 5.5 11.8 5.5 6.5 0 10.6-3.8 13.6-10 6.5 8.7 10.2 10.3 14.1 10.3 4.8 0 8.1-.6 12.5-1.7l.2-1.3c-4.3.4-9.9-4-20.9-18.7zm-14.2-46.1h.1c3.6 0 5.2 5 5.2 11.2 0 5.2-1.3 10.3-4.5 14.4-2.5-4.5-5.3-9.7-5.3-15.9 0-6.5 1.8-9.7 4.5-9.7zm.7 61c-7.4 0-11.3-9.3-11.3-17.7v-.1c0-3.6 1.2-8.3 2.4-10.4 4.4 7.7 10 16.2 15.5 23.6-1.3 2.6-3.4 4.6-6.6 4.6z"></path><path d="m496.1 34.9v1.3l2 .3c3.7.7 4.6.9 3.7 4.7-1.3 6-4 17.3-5.6 22.7-1.6-5.3-6.6-20-8-25.2-.4-1.8-.2-2.1 1.4-2.3l2.1-.3-.3-1.3c-2.7.1-6.3.3-11.9.3-4.1 0-7-.2-10.5-.3l.1 1.3 1.8.3c1.6.3 2 1.2 2.9 3.3 1.9 4.7 8.7 24.2 13 37.9.9 2.7 1.8 5.1 3.3 5.9-.7 2.7-2.6 13-5.7 13-.9 0-1.3-.7-2-1.9-.7-1.3-1.9-1.8-3.3-1.8-3.1 0-5.3 2.7-5.3 6.2s2.2 6.2 6.3 6.2c6.2 0 8.2-6.7 11.2-17.4 4.4-15.5 9.7-34.7 13-45.4 1.8-5.8 2.5-6.2 6.5-6.4v-1.3c-.9 0-4.8.3-7.4.3-3 .2-5.3-.1-7.3-.1z"></path><path d="m343.2 71.4c-.7 3.7-1.9 6.6-3.7 6.6-1.1 0-1.9-.7-1.9-3.7v-29.8c0-1.4-.2-2.9-1.1-4.3-1.4-2.2-4.8-6.3-14.2-6.3-10.5 0-17.7 6.2-17.7 11.5 0 4 2.7 5.6 5.6 5.6 1.8 0 3.7-.4 4.8-1.3.8-.7 1.2-1.5 1-2.6-.2-1.2-.4-2.4-.4-3.7 0-6.4 2-7.8 4.8-7.8 1.8 0 3.8 1.5 3.8 8.4v7.5c-4.7 3.3-11.3 5.6-16.6 8.2-2.7 1.3-4.7 4-4.7 9.4 0 8.9 4.9 13.6 10.8 13.6 3.5 0 7-2.7 10.7-6.6.8 5.3 4.2 6.6 9 6.6 4.2 0 10.2-2 11.3-10.8zm-18.9.2c0 1.1-.1 2.2-.3 2.7-.3.9-1 1.8-2.5 1.8-3.4 0-4.4-6.7-4.4-10.1v-.1c0-6.6 2-8.6 3.2-9.7 1-.9 2.2-1.9 4.1-3.2v18.6z"></path><path d="m303.9 13.2c-2.2.3-6.7.8-14.4.8h-13.1c-5.9 0-11.2-.2-13.6-.3v1.2l3.6.3c1 .1 2.1 1 2.1 2.3.1 1.5.3 7.1.3 18.7v19.4c0 9.8-.4 19.4-.7 21.8-.1 2-1.3 2.3-2.5 2.5l-3.1.4.2 1.3c2 0 7.7-.3 13.3-.3 3.6 0 12.3.3 14.8.3l.2-1.3c-2.3-.3-3.8-.5-5.1-.8-1.6-.2-2.2-1.2-2.3-3.1-.1-2.2-.3-6.2-.3-17.3v-10.7h4.6c7.1 0 8.5 4 9.9 11h1.1c-.8-5.4-.5-17 .1-22.2l-1-.2c-.9 6.8-4.9 9.3-10 9.3-1.5 0-3.4 0-4.5-.2v-10.1c0-11.2.3-17.7.4-18.8s.8-1.5 1.6-1.5h3.3c5.9 0 9 2 10.8 5.7 1.3 2.9 2.1 5.4 2.6 9.1h1.1c-.1-2.6-.2-10.7.6-17.3z"></path><path d="m410 77.2v-32.9c0-1.8-.3-3.8-1.2-5.6-1.1-2.2-3.5-4.8-8.2-4.8-5.9 0-11.1 4.5-13.8 6.8-.3-1.2-.9-2.6-1.9-3.7-.9-1.1-2.9-3.1-7.1-3.1-5.9 0-11 4.5-13.5 6.7-.1-1.4-.7-4.4-1-6.3-4.9 1.1-12.2 1.5-17.4 1.5l-.5 1.4c4.1-.3 4.6.1 4.7 1.5.1 3.6.3 7.4.3 13.8v12.2c0 4.9-.2 9.7-.3 12.2-.2 2.6-.4 2.7-4.5 3.2v1.4c2.4 0 7.6-.3 12.4-.3 4.4 0 8.1.3 10.2.3v-1.4c-3.3-.7-3.5-.7-3.7-2.9-.3-2.9-.3-5.7-.3-9.8v-20.6c0-1.6.2-3.2 1.1-4.6 1.1-1.8 2.6-2.6 4.3-2.6 2 0 3.1 1.6 3.5 2.7.3.8.3 1.8.3 6v16.6c0 4.9-.1 10-.2 13.1-.1 1.5-.4 1.6-3.3 2.2v1.5c.9 0 4-.3 10.2-.3 4.1 0 9.3.3 10.9.3l.3-1.4c-3.7-.4-4-.9-4.1-2-.2-2.3-.2-6.6-.2-10.7v-21.3c0-1.6.1-2.9.7-3.7 1.3-2.1 3-3.1 4.8-3.1 2.2 0 3 1.6 3.4 3.2.2 1.1.3 1.9.3 21.4 0 7.5-.2 11-.3 14.1-.1 1.6-.5 2-3.1 2.2v1.3c.8 0 4.1-.3 9.6-.3 5.1 0 8.4.3 11.9.3v-1.3c-4-.8-4.3-.9-4.3-3.2z"></path><path d="m437.4 76.6c-.2-2.4-.3-4.6-.3-12.4v-13c0-10.8.1-14.6.3-17-5.2 1.4-13.2 1.8-18.7 2.2v1.3c3.5-.1 4.3.4 4.5 2.4.1 1.3.1 7.4.1 11.5v12.6c0 7.3-.1 10.8-.3 12.7-.2 2.3-.8 3.2-4.5 3.3v1.3c2.3 0 5.5-.3 11-.3 5.3 0 8.6.3 12 .3v-1.3c-3.5-.4-3.9-.7-4.1-3.6z"></path><path d="m464.3 76.5v-17.9-27.4c0-15.2.3-20.3.5-22.9-3.8.8-13.1 2-18.6 2.1v1.3c3.7 0 3.8.3 4.1 3 .1 2.2.2 6.6.2 15.7v24.2c0 10.9-.3 19-.4 21.3-.2 3.6-.9 4.5-4.6 4.5v1.3c2.1 0 6.9-.3 10.9-.3s9.8.3 12.3.3v-1.3c-3.8-.2-4.3-.7-4.4-3.9z"></path><path d="m46 13.2c-2.2.3-6.7.8-14.4.8h-13c-6 0-11.2-.2-13.6-.3v1.2l3.6.3c1 .1 2.1 1 2.1 2.3.1 1.5.3 7.1.3 18.7v19.4c0 9.8-.4 19.4-.7 21.8-.1 2-1.3 2.3-2.5 2.5l-3.1.4.3 1.4c2 0 7.7-.3 13.3-.3 3.6 0 12.3.3 14.8.3l.2-1.3c-2.3-.3-3.8-.5-5.1-.8-1.6-.2-2.2-1.2-2.3-3.1-.1-2.2-.3-6.2-.3-17.3v-10.8h4.6c7.1 0 8.5 4 9.9 11h1.1c-.8-5.4-.5-17 .1-22.2l-1.2-.2c-.9 6.8-4.9 9.3-10 9.3-1.5 0-3.4 0-4.5-.2v-10.1c0-11.2.3-17.7.4-18.8s.8-1.5 1.6-1.5h3.4c5.9 0 9 2 10.8 5.7 1.3 2.9 2.1 5.4 2.6 9.1h1.1c-.1-2.6-.2-10.7.5-17.3z"></path><path d="m85.3 71.4c-.7 3.7-1.9 6.6-3.7 6.6-1.1 0-1.9-.7-1.9-3.7v-29.8c0-1.4-.2-2.9-1.1-4.3-1.4-2.2-4.8-6.3-14.2-6.3-10.5 0-17.7 6.2-17.7 11.5 0 4 2.7 5.6 5.6 5.6 1.8 0 3.7-.4 4.8-1.3.8-.7 1.2-1.5 1-2.6-.2-1.2-.4-2.4-.4-3.7 0-6.4 2-7.8 4.8-7.8 1.8 0 3.8 1.5 3.8 8.4v7.5c-4.7 3.3-11.3 5.6-16.6 8.2-2.7 1.3-4.7 4-4.7 9.4 0 8.9 4.9 13.6 10.8 13.6 3.5 0 7-2.7 10.7-6.6.8 5.3 4.2 6.6 9 6.6 4.2 0 10.2-2 11.3-10.8zm-18.9.2c0 1.1-.1 2.2-.3 2.7-.3.9-1 1.8-2.5 1.8-3.4 0-4.4-6.7-4.4-10.1v-.1c0-6.6 2-8.6 3.2-9.7 1-.9 2.2-1.9 4.1-3.2z"></path><path d="m191.1 77.2v-32.9c0-1.8-.3-3.8-1.2-5.6-1.1-2.2-3.5-4.8-8.2-4.8-5.9 0-11.1 4.5-13.8 6.8-.3-1.2-.9-2.6-1.9-3.7-.9-1.1-2.9-3.1-7.1-3.1-5.9 0-11 4.5-13.5 6.7-.1-1.4-.7-4.4-1-6.3-4.9 1.1-12.2 1.5-17.4 1.5l-.5 1.4c4.1-.3 4.6.1 4.7 1.5.1 3.6.3 7.4.3 13.8v12.2c0 4.9-.2 9.7-.3 12.2-.2 2.6-.4 2.7-4.5 3.2v1.4c2.4 0 7.6-.3 12.4-.3 4.4 0 8.1.3 10.2.3v-1.4c-3.3-.7-3.5-.7-3.7-2.9-.3-2.9-.3-5.7-.3-9.8v-20.6c0-1.6.2-3.2 1.1-4.6 1.1-1.8 2.6-2.6 4.3-2.6 2 0 3.1 1.6 3.5 2.7.3.8.3 1.8.3 6v16.6c0 4.9-.1 10-.2 13.1-.1 1.5-.4 1.6-3.3 2.2v1.5c.9 0 4-.3 10.2-.3 4.1 0 9.3.3 10.9.3l.3-1.4c-3.7-.4-4-.9-4.1-2-.1-2.3-.1-6.6-.1-10.7v-21.3c0-1.6.1-2.9.7-3.7 1.3-2.1 3-3.1 4.8-3.1 2.2 0 3 1.6 3.4 3.2.2 1.1.3 1.9.3 21.4 0 7.5-.2 11-.3 14.1-.1 1.6-.5 2-3.1 2.2v1.3c.8 0 4.1-.3 9.6-.3 5.1 0 8.4.3 11.9.3v-1.3c-4.1-.8-4.4-.9-4.4-3.2z"></path><path d="m117.1 33.9c-6.4 0-8.7 4.8-10.4 13h-.3c0-4.9-.3-9.5-.5-12.3l-.2-.2c-5.4 1.3-11.8 1.9-17.3 2.2l.1 1.3h2.5c1 0 1.5.7 1.9 2.2.4 2.1.7 5.7.7 12v10.7c0 7.1-.3 12.4-.5 15.3-.1 1.8-1 2.2-4.7 2.4l-.4 1.3c4.4-.1 8.6-.3 14-.3 4.9 0 7.7.2 11.6.3l.2-1.3c-5.4-.2-6-1-6.2-3.3-.2-3-.2-10.8-.2-19.8 0-6.2.3-8.8 1-10.9.9-2.6 1.6-3.1 3-3.1 1.3 0 1.8.8 2.4 3 .4 1.4 1.9 1.9 3.7 1.9s5.8-1.3 5.8-7.4c-.1-4.5-2.9-7-6.2-7z"></path><path d="m191.1 77.2v-32.9c0-1.8-.3-3.8-1.2-5.6-1.1-2.2-3.5-4.8-8.2-4.8-5.9 0-11.1 4.5-13.8 6.8-.3-1.2-.9-2.6-1.9-3.7-.9-1.1-2.9-3.1-7.1-3.1-5.9 0-11 4.5-13.5 6.7-.1-1.4-.7-4.4-1-6.3-4.9 1.1-12.2 1.5-17.4 1.5l-.5 1.4c4.1-.3 4.6.1 4.7 1.5.1 3.6.3 7.4.3 13.8v12.2c0 4.9-.2 9.7-.3 12.2-.2 2.6-.4 2.7-4.5 3.2v1.4c2.4 0 7.6-.3 12.4-.3 4.4 0 8.1.3 10.2.3v-1.4c-3.3-.7-3.5-.7-3.7-2.9-.3-2.9-.3-5.7-.3-9.8v-20.6c0-1.6.2-3.2 1.1-4.6 1.1-1.8 2.6-2.6 4.3-2.6 2 0 3.1 1.6 3.5 2.7.3.8.3 1.8.3 6v16.6c0 4.9-.1 10-.2 13.1-.1 1.5-.4 1.6-3.3 2.2v1.5c.9 0 4-.3 10.2-.3 4.1 0 9.3.3 10.9.3l.3-1.4c-3.7-.4-4-.9-4.1-2-.1-2.3-.1-6.6-.1-10.7v-21.3c0-1.6.1-2.9.7-3.7 1.3-2.1 3-3.1 4.8-3.1 2.2 0 3 1.6 3.4 3.2.2 1.1.3 1.9.3 21.4 0 7.5-.2 11-.3 14.1-.1 1.6-.5 2-3.1 2.2v1.3c.8 0 4.1-.3 9.6-.3 5.1 0 8.4.3 11.9.3v-1.3c-4.1-.8-4.4-.9-4.4-3.2z"></path><path d="m496.1 34.9v1.3l2 .3c3.7.7 4.6.9 3.7 4.7-1.3 6-4 17.3-5.6 22.7-1.6-5.3-6.6-20-8-25.2-.4-1.8-.2-2.1 1.4-2.3l2.1-.3-.3-1.3c-2.7.1-6.3.3-11.9.3-4.1 0-7-.2-10.5-.3l.1 1.3 1.8.3c1.6.3 2 1.2 2.9 3.3 1.9 4.7 8.7 24.2 13 37.9.9 2.7 1.8 5.1 3.3 5.9-.7 2.7-2.6 13-5.7 13-.9 0-1.3-.7-2-1.9-.7-1.3-1.9-1.8-3.3-1.8-3.1 0-5.3 2.7-5.3 6.2s2.2 6.2 6.3 6.2c6.2 0 8.2-6.7 11.2-17.4 4.4-15.5 9.7-34.7 13-45.4 1.8-5.8 2.5-6.2 6.5-6.4v-1.3c-.9 0-4.8.3-7.4.3-3 .2-5.3-.1-7.3-.1z"></path><path d="m46 13.2c-2.2.3-6.7.8-14.4.8h-13c-6 0-11.2-.2-13.6-.3v1.2l3.6.3c1 .1 2.1 1 2.1 2.3.1 1.5.3 7.1.3 18.7v19.4c0 9.8-.4 19.4-.7 21.8-.1 2-1.3 2.3-2.5 2.5l-3.1.4.3 1.4c2 0 7.7-.3 13.3-.3 3.6 0 12.3.3 14.8.3l.2-1.3c-2.3-.3-3.8-.5-5.1-.8-1.6-.2-2.2-1.2-2.3-3.1-.1-2.2-.3-6.2-.3-17.3v-10.8h4.6c7.1 0 8.5 4 9.9 11h1.1c-.8-5.4-.5-17 .1-22.2l-1.2-.2c-.9 6.8-4.9 9.3-10 9.3-1.5 0-3.4 0-4.5-.2v-10.1c0-11.2.3-17.7.4-18.8s.8-1.5 1.6-1.5h3.4c5.9 0 9 2 10.8 5.7 1.3 2.9 2.1 5.4 2.6 9.1h1.1c-.1-2.6-.2-10.7.5-17.3z"></path><path d="m117.1 33.9c-6.4 0-8.7 4.8-10.4 13h-.3c0-4.9-.3-9.5-.5-12.3l-.2-.2c-5.4 1.3-11.8 1.9-17.3 2.2l.1 1.3h2.5c1 0 1.5.7 1.9 2.2.4 2.1.7 5.7.7 12v10.7c0 7.1-.3 12.4-.5 15.3-.1 1.8-1 2.2-4.7 2.4l-.4 1.3c4.4-.1 8.6-.3 14-.3 4.9 0 7.7.2 11.6.3l.2-1.3c-5.4-.2-6-1-6.2-3.3-.2-3-.2-10.8-.2-19.8 0-6.2.3-8.8 1-10.9.9-2.6 1.6-3.1 3-3.1 1.3 0 1.8.8 2.4 3 .4 1.4 1.9 1.9 3.7 1.9s5.8-1.3 5.8-7.4c-.1-4.5-2.9-7-6.2-7z"></path><path d="m464.3 76.5v-17.9-27.4c0-15.2.3-20.3.5-22.9-3.8.8-13.1 2-18.6 2.1v1.3c3.7 0 3.8.3 4.1 3 .1 2.2.2 6.6.2 15.7v24.2c0 10.9-.3 19-.4 21.3-.2 3.6-.9 4.5-4.6 4.5v1.3c2.1 0 6.9-.3 10.9-.3s9.8.3 12.3.3v-1.3c-3.8-.2-4.3-.7-4.4-3.9z"></path><path d="m437.4 76.6c-.2-2.4-.3-4.6-.3-12.4v-13c0-10.8.1-14.6.3-17-5.2 1.4-13.2 1.8-18.7 2.2v1.3c3.5-.1 4.3.4 4.5 2.4.1 1.3.1 7.4.1 11.5v12.6c0 7.3-.1 10.8-.3 12.7-.2 2.3-.8 3.2-4.5 3.3v1.3c2.3 0 5.5-.3 11-.3 5.3 0 8.6.3 12 .3v-1.3c-3.5-.4-3.9-.7-4.1-3.6z"></path><path d="m410 77.2v-32.9c0-1.8-.3-3.8-1.2-5.6-1.1-2.2-3.5-4.8-8.2-4.8-5.9 0-11.1 4.5-13.8 6.8-.3-1.2-.9-2.6-1.9-3.7-.9-1.1-2.9-3.1-7.1-3.1-5.9 0-11 4.5-13.5 6.7-.1-1.4-.7-4.4-1-6.3-4.9 1.1-12.2 1.5-17.4 1.5l-.5 1.4c4.1-.3 4.6.1 4.7 1.5.1 3.6.3 7.4.3 13.8v12.2c0 4.9-.2 9.7-.3 12.2-.2 2.6-.4 2.7-4.5 3.2v1.4c2.4 0 7.6-.3 12.4-.3 4.4 0 8.1.3 10.2.3v-1.4c-3.3-.7-3.5-.7-3.7-2.9-.3-2.9-.3-5.7-.3-9.8v-20.6c0-1.6.2-3.2 1.1-4.6 1.1-1.8 2.6-2.6 4.3-2.6 2 0 3.1 1.6 3.5 2.7.3.8.3 1.8.3 6v16.6c0 4.9-.1 10-.2 13.1-.1 1.5-.4 1.6-3.3 2.2v1.5c.9 0 4-.3 10.2-.3 4.1 0 9.3.3 10.9.3l.3-1.4c-3.7-.4-4-.9-4.1-2-.2-2.3-.2-6.6-.2-10.7v-21.3c0-1.6.1-2.9.7-3.7 1.3-2.1 3-3.1 4.8-3.1 2.2 0 3 1.6 3.4 3.2.2 1.1.3 1.9.3 21.4 0 7.5-.2 11-.3 14.1-.1 1.6-.5 2-3.1 2.2v1.3c.8 0 4.1-.3 9.6-.3 5.1 0 8.4.3 11.9.3v-1.3c-4-.8-4.3-.9-4.3-3.2z"></path><path d="m303.9 13.2c-2.2.3-6.7.8-14.4.8h-13.1c-5.9 0-11.2-.2-13.6-.3v1.2l3.6.3c1 .1 2.1 1 2.1 2.3.1 1.5.3 7.1.3 18.7v19.4c0 9.8-.4 19.4-.7 21.8-.1 2-1.3 2.3-2.5 2.5l-3.1.4.2 1.3c2 0 7.7-.3 13.3-.3 3.6 0 12.3.3 14.8.3l.2-1.3c-2.3-.3-3.8-.5-5.1-.8-1.6-.2-2.2-1.2-2.3-3.1-.1-2.2-.3-6.2-.3-17.3v-10.7h4.6c7.1 0 8.5 4 9.9 11h1.1c-.8-5.4-.5-17 .1-22.2l-1-.2c-.9 6.8-4.9 9.3-10 9.3-1.5 0-3.4 0-4.5-.2v-10.1c0-11.2.3-17.7.4-18.8s.8-1.5 1.6-1.5h3.3c5.9 0 9 2 10.8 5.7 1.3 2.9 2.1 5.4 2.6 9.1h1.1c-.1-2.6-.2-10.7.6-17.3z"></path><path d="m57.5 3.2v22h3.5v-10h10.8v-2.5h-10.8v-7h13.1v-2.5z"></path><path d="m77.4 3.2v22h15.6v-2.5h-12.1v-19.5z"></path><path d="m146.5 3.2h3.5v22.1h-3.5z"></path><path d="m106.3 2.8c-5.7 0-11.8 3-11.8 11.5 0 7.3 4 11.4 11.4 11.4s11.6-4.1 11.6-11.4-4.1-11.5-11.2-11.5zm-.1 20.4c-6.7 0-8.1-4.9-8.1-9 0-4.3 2.1-8.9 8-8.9 1.8 0 7.7.7 7.7 9.1 0 2.6-.7 8.8-7.6 8.8z"></path><path d="m138 17.4c-.8-1.3-1.2-1.9-2.3-2.2 1.7-.5 4.9-2 4.9-6s-3.1-6-9.4-6h-8.8v22.1h3.5v-9h5.8c1.6 0 2.3.8 3.1 2l4.1 7h3.7zm-7-3.4h-5.2v-8.5h3.4c5.2 0 7.6.4 7.6 3.8.1 3-2 4.7-5.8 4.7z"></path><path d="m164 3.2h-8.4v22.1h8.7c7.8 0 12.3-4.3 12.3-11.8-.1-6.6-4.7-10.3-12.6-10.3zm.3 19.6h-5.3v-17.3h4.7c6.2 0 9.3 2.8 9.3 8.5 0 5.6-3.2 8.8-8.7 8.8z"></path><path d="m190.7 3.2h-4.1l-9.6 22h3.5l2.9-6.7h10.6l3 6.6v.1h3.7zm-6.4 13 4.3-10.3 4.4 10.3z"></path></g></svg> 