<svg enable-background="new 0 0 748.5 146.4" viewBox="0 0 748.5 146.4" xmlns="http://www.w3.org/2000/svg" xmlns:xlink="http://www.w3.org/1999/xlink"><clipPath id="a"><path d="m9.4-2h732.4v140.6h-732.4z"/></clipPath><g fill="#ffffff"><path d="m182 13.5h3.2v23.1h-3.2z"/><path d="m190.2 13.5h3.2v20.3h10.3v2.8h-13.6v-23.1z"/><path d="m207.1 13.5h3.2v20.3h10.3v2.8h-13.6v-23.1z"/><path d="m223.8 13.5h3.2v23.1h-3.2z"/><path d="m233 13.5h3.2l10.3 15c.9 1.2 1.9 3.3 1.9 3.3h.1s-.2-2.1-.2-3.3v-15h3.2v23.1h-3.2l-10.3-15c-.9-1.3-1.9-3.4-1.9-3.4h-.1s.2 2.1.2 3.4v15h-3.2z"/><path d="m266.8 13.1c6.7 0 11.8 5.1 11.8 11.8 0 6.8-5.2 12.1-11.8 12.1-6.7 0-11.9-5.3-11.9-12.1 0-6.7 5.2-11.8 11.9-11.8zm0 20.9c4.7 0 8.5-3.9 8.5-9.1 0-5-3.8-8.8-8.5-8.8s-8.5 3.8-8.5 8.8c0 5.2 3.8 9.1 8.5 9.1z"/><path d="m282.5 13.5h3.2v23.1h-3.2z"/><path d="m291.1 31.5s2.5 2.5 5.9 2.5c2.2 0 4-1.2 4-3.4 0-5-11.2-3.9-11.2-11 0-3.6 3.1-6.4 7.5-6.4 4.3 0 6.5 2.3 6.5 2.3l-1.5 2.7s-2.1-2-5.1-2c-2.5 0-4.2 1.5-4.2 3.4 0 4.8 11.2 3.5 11.2 11 0 3.6-2.7 6.5-7.3 6.5-4.9 0-7.7-3-7.7-3z"/><path d="m353.1 13.5h12.7v2.8h-9.5v7.6h8.1v2.8h-8.1v9.9h-3.2z"/><path d="m380.6 29.9h-8.7l-2.3 6.6h-3.3l8.3-23.1h3.4l8.3 23.1h-3.4zm-4.4-13.3s-.5 2.1-.9 3.3l-2.6 7.3h7l-2.6-7.3c-.3-1.2-.8-3.3-.9-3.3z"/><path d="m389.4 13.5h7.1c2.4 0 3.4.2 4.3.5 2.4.9 3.9 3.2 3.9 6.2 0 2.9-1.6 5.4-4.2 6.2v.1s.3.3.7 1l4.9 9h-3.7l-4.9-9.2h-4.9v9.2h-3.2zm7.9 11.1c2.5 0 4.1-1.6 4.1-4.2 0-1.7-.7-2.9-1.8-3.6-.6-.3-1.4-.5-3.2-.5h-3.7v8.3z"/><path d="m411.2 13.5h3.4l5.3 12.5c.5 1.3 1.1 3.1 1.1 3.1h.1s.6-1.8 1.1-3.1l5.3-12.5h3.4l1.9 23.1h-3.2l-1.2-14.6c-.1-1.4 0-3.4 0-3.4h-.1s-.7 2.1-1.2 3.4l-4.6 10.4h-2.9l-4.6-10.4c-.5-1.2-1.2-3.5-1.2-3.5h-.1s0 2.1-.1 3.5l-1.1 14.6h-3.2z"/><path d="m448.9 13.5h8.1c3.9 0 6.7 2.2 6.7 5.9 0 2.3-1.1 4.1-2.9 5v.1c2.4.7 3.8 3 3.8 5.6 0 4.3-3.4 6.6-7.4 6.6h-8.3zm8 9.7c2.1 0 3.4-1.5 3.4-3.5s-1.2-3.4-3.5-3.4h-4.8v6.9zm.4 10.5c2.5 0 4-1.6 4-3.9 0-2.4-1.6-4-4-4h-5.2v7.9z"/><path d="m467.4 13.5h3.2v14.9c0 3.5 2.3 5.6 5.8 5.6 3.6 0 5.9-2.1 5.9-5.7v-14.8h3.2v14.9c0 5.1-3.7 8.6-9.1 8.6s-9.1-3.4-9.1-8.6v-14.9z"/><path d="m490 13.5h7.1c2.4 0 3.4.2 4.3.5 2.4.9 3.9 3.2 3.9 6.2 0 2.9-1.6 5.4-4.2 6.2v.1s.3.3.7 1l4.9 9h-3.7l-4.9-9.2h-4.9v9.2h-3.2zm7.8 11.1c2.5 0 4.1-1.6 4.1-4.2 0-1.7-.7-2.9-1.8-3.6-.6-.3-1.4-.5-3.2-.5h-3.7v8.3z"/><path d="m510.2 13.5h13.4v2.8h-10.2v7.2h8.3v2.8h-8.3v7.4h10.7v2.8h-14v-23z"/><path d="m540.8 29.9h-8.7l-2.3 6.6h-3.3l8.3-23.1h3.4l8.3 23.1h-3.4zm-4.3-13.3s-.5 2.1-.9 3.3l-2.6 7.3h7l-2.5-7.3c-.5-1.2-.9-3.3-1-3.3z"/><path d="m548.1 13.5h3.2v14.9c0 3.5 2.3 5.6 5.8 5.6 3.6 0 5.9-2.1 5.9-5.7v-14.8h3.2v14.9c0 5.1-3.7 8.6-9.1 8.6s-9.1-3.4-9.1-8.6v-14.9z"/></g><path d="m571.8 18.8c-1.4 0-2.4-1-2.4-2.4 0-1.5 1.1-2.4 2.4-2.4s2.4 1 2.4 2.4c.1 1.4-1 2.4-2.4 2.4zm0-4.5c-1.2 0-2.1.9-2.1 2.1s.9 2.1 2.1 2.1 2.1-.9 2.1-2.1-.9-2.1-2.1-2.1zm.5 2.2.6 1.2h-.4l-.6-1.1h-.6v1.1h-.3v-2.7h1.1c.5 0 .9.2.9.8-.1.4-.3.6-.7.7zm-.3-1.2h-.7v.9h.7c.4 0 .6-.1.6-.5 0-.2-.2-.4-.6-.4z" fill="#ffffff"/><path clip-path="url(#a)" d="m659.8 116.1c0 15.5 23.1 22.5 39.6 22.5 22 0 42.3-9 42.3-29.9 0-19.3-17.5-25-31.5-28.8-8.8-2.3-16.2-4.5-16.2-10.1 0-3.6 3.8-4.7 8.8-4.7 6.7 0 9.4 2.2 9.4 5v4.1h26.1v-12.5c0-15.1-21.3-20.2-35.5-20.2-17.8 0-39.8 6.1-39.8 27.9 0 18.7 16 25.2 29.5 29.7 11.9 4 18.2 4.7 18.2 10.4 0 3.6-4 5.4-11.3 5.4-9 0-13.5-2.5-13.5-6.7v-4.7h-26.1zm-76 20.4h56.4v-22.5h-12.6v-13.5c0-16.9 8.3-27.9 25.6-27.9 3.8 0 6.3.5 6.3.5v-30.7s-1.8-.4-3.6-.4c-13.9 0-25.6 10.4-29.5 23.1h-.4s.4-1.8.4-4.7v-4.9c0-8.5-4.7-11.9-13.1-11.9h-29.4v22.5h8.6c2.5 0 4 1.4 4 4v43.9h-12.6v22.5zm-66.2-57.9c1.6-7.2 5.9-13.7 15-13.7 6.8 0 11.7 6.3 11.7 13.7zm-32.6 11.4c0 24.7 17.8 48.6 51 48.6 25 0 40-13 40-13l-11.4-21.6s-12.4 8.8-26.1 8.8c-9.9 0-19.3-5.2-21.6-17.1h58.9s.7-6.3.7-9.4c0-25.8-15.5-44.8-43.2-44.8-30 0-48.3 21.3-48.3 48.5m-114.7 46.5h54.6v-22.5h-11.7v-16.8c0-13 6.1-27.4 20-27.4 7 0 10.4 3.6 10.4 12.2v54.4h42.9v-22.4h-11.7v-37.7c0-26.1-13.9-34.8-31.3-34.8-23.4 0-31.5 17.8-31.5 17.8h-.4s.2-1.3.2-2.2v-3.1c0-6.3-4.3-10.4-12.8-10.4h-29.5v22.5h8.6c2.5 0 4 1.4 4 4v43.9h-11.7v22.5zm-57.6-34.3c0 31.2 28.6 35.1 43.4 35.1 5 0 8.5-.5 8.5-.5v-25.2s-1.6.2-4.1.2c-5.9 0-16.6-1.6-16.6-12.8v-32.8h19.5v-22.5h-19.5v-31.6h-30.3v31.6h-13.5v22.5h12.6zm-93.4 34.3h56.4v-22.5h-12.6v-13.5c0-16.9 8.3-27.9 25.6-27.9 3.8 0 6.3.5 6.3.5v-30.7s-1.8-.4-3.6-.4c-13.9 0-25.6 10.4-29.5 23.1h-.4s.4-1.8.4-4.7v-4.9c0-8.5-4.7-11.9-13.1-11.9h-29.4v22.5h8.6c2.5 0 4 1.4 4 4v43.9h-12.6v22.5zm-70.1-28.7c0-8.3 11-11.5 21.3-11.5h2.9v2.2c0 8.1-7.9 17.7-15.8 17.7-5.2-.1-8.4-3.5-8.4-8.4m-31.4 2.2c0 18.7 14.2 28.6 30.4 28.6 19.8 0 27.4-15.3 27.4-15.3h.4s-.4 1.3-.4 2.9v.5c0 4.5 3.4 9.7 12.4 9.7h26.8v-22.4h-6.8c-2.5 0-4-1.4-4-4v-30.6c0-24.3-14.4-37.8-41.4-37.8-23.4 0-39.3 12.1-39.3 12.1l10.8 21.1s13-8.8 25.6-8.8c7 0 13.1 2.7 13.1 10.3v2.7h-5.6c-14.2-.2-49.4 3.8-49.4 31m-61.8-40.4v-36.7h14.2c4.9 0 8.3.9 11.3 2.9 4.1 2.9 6.3 8.5 6.3 15.3 0 7-2.2 12.8-6.8 15.8-3.2 1.8-6.3 2.7-11.3 2.7zm-46.6 66.9h61.1v-23.4h-14.5v-18.2h18.4c7.6 0 14.2-.7 20.2-2.7 15.5-5.4 25.4-22.2 25.4-41.1 0-19.1-9.7-34.8-24.9-40.5-6.5-2.6-14.2-2.9-21.6-2.9h-64.1v23.4h14.4v82h-14.4z" fill="#ffffff"/></svg>