<?xml version="1.0" encoding="UTF-8"?>
<svg id="Layer_2" data-name="Layer 2" xmlns="http://www.w3.org/2000/svg" viewBox="0 0 507.48 83.6">
  <defs>
    <style>
      .cls-1 {
        fill: #fff;
        stroke-width: 0px;
      }
    </style>
  </defs>
  <g id="Layer_1-2" data-name="Layer 1">
    <g>
      <path class="cls-1" d="m299.94,41.17h-1.4c-2.66-7.49-6.37-10.57-13.58-10.57h-6.09v21.42h3.57c4.97,0,7.07-.91,9.94-7.7h1.4v17.5h-1.4c-2.87-7.21-4.97-7.77-9.94-7.77h-3.57v18.2c0,1.96,1.54,2.38,6.72,2.59v1.33h-22.47v-1.33c3.5-.21,4.55-.63,4.55-2.59v-39.76c0-1.96-1.05-2.38-4.55-2.59v-1.33h36.82v12.6Z"/>
      <path class="cls-1" d="m340.4,74.84v1.33h-20.72v-1.33c2.52,0,4.06-.14,4.06-1.4,0-.63-.56-2.24-3.57-9.87h-16.38c-1.89,5.25-2.1,6.3-2.1,7,0,2.59,2.87,4.27,6.16,4.27v1.33h-15.68v-1.33c3.43,0,5.67-2.59,7.28-6.79l16.24-40.53h1.54l18.76,45.58c.7,1.54,1.61,1.75,4.41,1.75Zm-21-13.37l-7.56-18.97c-3.43,8.96-5.74,14.91-7.28,18.97h14.84Z"/>
      <path class="cls-1" d="m397.73,33.68v38.57c0,1.96.98,2.38,4.48,2.59v1.33h-20.23v-1.33c3.5-.21,4.55-.63,4.55-2.59v-37.73l-16.45,42.14-.07-.07v.07h-3.08l-16.31-42.14v32.9c0,5.11,2.03,6.93,6.16,7.42v1.33h-14.14v-1.33c3.78-.56,5.6-2.31,5.6-7.42v-33.74c0-2.94-1.19-3.57-5.32-3.78v-1.33h17.5l12.95,33.39,12.95-33.39h15.89v1.33c-3.5.21-4.48.84-4.48,3.78Z"/>
      <path class="cls-1" d="m422.99,72.25c0,1.96.98,2.38,4.13,2.59v1.33h-19.39v-1.33c3.22-.21,4.06-.63,4.06-2.59v-39.76c0-1.96-.84-2.38-4.06-2.59v-1.33h19.39v1.33c-3.15.21-4.13.63-4.13,2.59v39.76Z"/>
      <path class="cls-1" d="m470.24,61.47l-1.54,14.7h-36.19v-1.33c3.5-.21,4.55-.63,4.55-2.59v-39.76c0-1.96-1.05-2.38-4.55-2.59v-1.33h20.79v1.33c-3.78.21-5.04.63-5.04,2.59v41.65h6.72c6.79,0,10.43-3.01,13.93-12.67h1.33Z"/>
      <path class="cls-1" d="m507.48,28.57v1.33c-3.57,0-5.18,1.96-7.28,5.95l-10.57,20.58v15.82c0,1.96.91,2.38,3.78,2.59v1.33h-18.76v-1.33c2.87-.21,3.78-.63,3.78-2.59v-15.75l-13.3-24.85c-.77-1.47-1.4-1.75-4.13-1.75v-1.33h20.58v1.33c-2.45,0-4.2.21-4.2,1.26,0,1.33,2.17,4.9,11.41,22.4,8.19-16.52,8.75-17.78,8.75-19.6,0-2.73-3.01-4.06-6.51-4.06v-1.33h16.45Z"/>
    </g>
    <g>
      <path class="cls-1" d="m161.59.36v.46c-1.51.19-1.97.82-1.97,2.66v13.37h-1.25l-10.42-14.11v10.83c0,1.85.53,2.5,2.28,2.66v.46h-5.06v-.46c1.54-.19,1.97-.82,1.97-2.66V1.7c0-.67-.41-.82-1.85-.89v-.46h5.59l7.92,10.73V3.48c0-1.85-.53-2.5-2.28-2.66v-.46h5.06Z"/>
      <path class="cls-1" d="m171.24,17.04c-4.9,0-8.02-3.48-8.02-8.52s3.12-8.52,8.02-8.52,7.99,3.48,7.99,8.52-3.12,8.52-7.99,8.52Zm0-.65c2.4,0,3.84-2.38,3.84-7.87s-1.44-7.87-3.84-7.87-3.86,2.38-3.86,7.87,1.44,7.87,3.86,7.87Z"/>
      <path class="cls-1" d="m196.85,15.72c-.46.62-1.34,1.32-2.98,1.32-2.45,0-3.1-1.51-3.6-3.58-.55-2.21-.82-4.44-2.93-4.44v-.12h-.7v6.43c0,.67.38.82,1.68.89v.46h-7.08v-.46c1.2-.07,1.56-.22,1.56-.89V1.7c0-.67-.36-.82-1.56-.89v-.46h7.68c3.82,0,5.71,1.58,5.71,4.1,0,2.38-1.66,3.84-4.54,4.3,2.5.5,3.46,1.8,3.89,3.86.29,1.37.38,3.46,1.39,3.46.41,0,.79-.31,1.15-.7l.31.34Zm-10.2-7.39h.96c1.66,0,3.22-.79,3.22-3.7s-1.46-3.58-3.14-3.58h-1.03v7.27Z"/>
      <path class="cls-1" d="m210.91,5.18h-.46c-.58-2.88-1.68-4.1-4.34-4.13v14.11c0,.82.38.98,1.66,1.06v.46h-7.15v-.46c1.27-.07,1.66-.24,1.66-1.06V1.06c-2.66.02-3.77,1.25-4.34,4.13h-.46V.36h13.44v4.82Z"/>
      <path class="cls-1" d="m228.43,1.7v13.63c0,.67.34.82,1.54.89v.46h-6.91v-.46c1.18-.07,1.54-.22,1.54-.89v-6.53h-6.07v6.53c0,.67.34.82,1.54.89v.46h-6.91v-.46c1.18-.07,1.54-.22,1.54-.89V1.7c0-.67-.36-.82-1.54-.89v-.46h6.91v.46c-1.2.07-1.54.22-1.54.89v6.38h6.07V1.7c0-.67-.36-.82-1.54-.89v-.46h6.91v.46c-1.2.07-1.54.22-1.54.89Z"/>
      <path class="cls-1" d="m252.07,14.19c-1.3,1.7-3.17,2.86-5.81,2.86-4.8,0-7.85-3.41-7.85-8.5s3.17-8.54,8.09-8.54c1.85,0,3.24.5,4.2,1.25l.82-1.1h.38c0,1.99,0,4.01.12,6h-.43c-.98-3.34-2.64-5.5-5.04-5.5-2.54,0-3.98,2.4-3.98,7.63,0,5.76,1.56,7.85,4.27,7.85,1.73,0,3.31-.7,4.8-2.35l.43.41Z"/>
      <path class="cls-1" d="m269.64,16.23v.46h-7.1v-.46c.86,0,1.39-.05,1.39-.48,0-.22-.19-.77-1.22-3.38h-5.62c-.65,1.8-.72,2.16-.72,2.4,0,.89.98,1.46,2.11,1.46v.46h-5.38v-.46c1.18,0,1.94-.89,2.5-2.33l5.57-13.9h.53l6.43,15.63c.24.53.55.6,1.51.6Zm-7.2-4.58l-2.59-6.5c-1.18,3.07-1.97,5.11-2.5,6.5h5.09Z"/>
      <path class="cls-1" d="m287.06,15.72c-.46.62-1.34,1.32-2.98,1.32-2.45,0-3.1-1.51-3.6-3.58-.55-2.21-.82-4.44-2.93-4.44v-.12h-.7v6.43c0,.67.38.82,1.68.89v.46h-7.08v-.46c1.2-.07,1.56-.22,1.56-.89V1.7c0-.67-.36-.82-1.56-.89v-.46h7.68c3.82,0,5.71,1.58,5.71,4.1,0,2.38-1.66,3.84-4.54,4.3,2.5.5,3.46,1.8,3.89,3.86.29,1.37.38,3.46,1.39,3.46.41,0,.79-.31,1.15-.7l.31.34Zm-10.2-7.39h.96c1.66,0,3.22-.79,3.22-3.7s-1.46-3.58-3.14-3.58h-1.03v7.27Z"/>
      <path class="cls-1" d="m295.92,17.04c-4.9,0-8.02-3.48-8.02-8.52s3.12-8.52,8.02-8.52,7.99,3.48,7.99,8.52-3.12,8.52-7.99,8.52Zm0-.65c2.4,0,3.84-2.38,3.84-7.87s-1.44-7.87-3.84-7.87-3.86,2.38-3.86,7.87,1.44,7.87,3.86,7.87Z"/>
      <path class="cls-1" d="m318.86,11.64l-.53,5.04h-12.41v-.46c1.2-.07,1.56-.22,1.56-.89V1.7c0-.67-.36-.82-1.56-.89v-.46h7.13v.46c-1.3.07-1.73.22-1.73.89v14.28h2.3c2.33,0,3.58-1.03,4.78-4.34h.46Z"/>
      <path class="cls-1" d="m326.06,15.34c0,.67.34.82,1.42.89v.46h-6.65v-.46c1.1-.07,1.39-.22,1.39-.89V1.7c0-.67-.29-.82-1.39-.89v-.46h6.65v.46c-1.08.07-1.42.22-1.42.89v13.63Z"/>
      <path class="cls-1" d="m346.2.36v.46c-1.51.19-1.97.82-1.97,2.66v13.37h-1.25l-10.42-14.11v10.83c0,1.85.53,2.5,2.28,2.66v.46h-5.06v-.46c1.54-.19,1.97-.82,1.97-2.66V1.7c0-.67-.41-.82-1.85-.89v-.46h5.59l7.92,10.73V3.48c0-1.85-.53-2.5-2.28-2.66v-.46h5.06Z"/>
      <path class="cls-1" d="m363.34,16.23v.46h-7.1v-.46c.86,0,1.39-.05,1.39-.48,0-.22-.19-.77-1.22-3.38h-5.62c-.65,1.8-.72,2.16-.72,2.4,0,.89.98,1.46,2.11,1.46v.46h-5.38v-.46c1.18,0,1.94-.89,2.5-2.33l5.57-13.9h.53l6.43,15.63c.24.53.55.6,1.51.6Zm-7.2-4.58l-2.59-6.5c-1.18,3.07-1.97,5.11-2.5,6.5h5.09Z"/>
    </g>
    <g>
      <path class="cls-1" d="m36.82,41.17h-1.4c-2.66-7.49-6.37-10.57-13.58-10.57h-6.09v21.42h3.57c4.97,0,7.07-.91,9.94-7.7h1.4v17.5h-1.4c-2.87-7.21-4.97-7.77-9.94-7.77h-3.57v18.2c0,1.96,1.54,2.38,6.72,2.59v1.33H0v-1.33c3.5-.21,4.55-.63,4.55-2.59v-39.76c0-1.96-1.05-2.38-4.55-2.59v-1.33h36.82v12.6Z"/>
      <path class="cls-1" d="m57.05,72.25c0,1.96.98,2.38,4.13,2.59v1.33h-19.39v-1.33c3.22-.21,4.06-.63,4.06-2.59v-39.76c0-1.96-.84-2.38-4.06-2.59v-1.33h19.39v1.33c-3.15.21-4.13.63-4.13,2.59v39.76Z"/>
      <path class="cls-1" d="m105.63,61.61l-1.54,14.56h-37.17v-1.33c3.5-.21,4.55-.63,4.55-2.59v-39.76c0-1.96-1.05-2.38-4.55-2.59v-1.33h36.82v12.6h-1.4c-2.66-7.49-6.37-10.57-13.58-10.57h-6.09v20.51h3.57c4.97,0,7.07-.84,9.94-7.7h1.4v17.5h-1.4c-2.87-7.21-4.97-7.7-9.94-7.7h-3.57v20.93h7.28c7.07,0,10.78-3.22,14.28-12.53h1.4Z"/>
      <path class="cls-1" d="m147.07,61.47l-1.54,14.7h-36.19v-1.33c3.5-.21,4.55-.63,4.55-2.59v-39.76c0-1.96-1.05-2.38-4.55-2.59v-1.33h20.79v1.33c-3.78.21-5.04.63-5.04,2.59v41.65h6.72c6.79,0,10.43-3.01,13.93-12.67h1.33Z"/>
      <path class="cls-1" d="m197.54,52.37c0,14.49-10.29,23.8-26.88,23.8h-19.95v-1.33c3.5-.21,4.55-.63,4.55-2.59v-39.76c0-1.96-1.05-2.38-4.55-2.59v-1.33h19.95c16.59,0,26.88,9.31,26.88,23.8Zm-12.04,0c0-15.89-6.02-21.84-14.35-21.84h-4.69v43.68h4.69c8.33,0,14.35-5.95,14.35-21.84Z"/>
    </g>
    <path class="cls-1" d="m240.7,48.26c5.16,1.83,8.57,6.99,8.57,13.14,0,12.47-13.22,22.2-29.69,22.2-15.14,0-25.28-8.07-25.28-19.54,0-9.9,7.23-18.79,16.47-21.71-3.33-1.66-6.4-4.91-6.4-9.98,0-8.81,9.31-17.05,19.96-17.05,7.15,0,10.81,3.74,10.81,8.23,0,4.91-4.16,9.65-8.48,9.65-1.41,0-2.25-.5-2.83-1.25,4.66-1.33,7.82-4.82,7.82-8.98,0-3.49-2.33-6.24-7.24-6.24-8.32,0-15.47,7.32-15.47,15.3,0,4.07,1.75,7.73,5.49,9.48.91-.17,1.91-.25,2.99-.25,2.58,0,3.91.58,3.91,1.41,0,1.08-1.25,1.58-3.16,1.58-1.41,0-3.08-.25-4.66-.75-8.23,1.83-14.72,10.06-14.72,19.71,0,11.14,8.81,18.21,21.71,18.21,13.89,0,26.03-8.4,26.03-19.88,0-6.99-4.57-12.14-11.39-12.14-6.24,0-15.22,3.74-15.22,10.89,0,3.91,2.58,6.24,5.82,6.24,2.83,0,4.82-1.91,5.07-4.08-.5.5-1.33.83-2.16.83-1.58,0-2.91-1.08-2.91-2.91s1.58-3.16,3.58-3.16c2.16,0,3.74,1.91,3.74,4.41,0,3.66-3.16,6.65-7.57,6.65-4.82,0-8.32-3.41-8.32-8.57,0-6.57,5.57-11.64,14.97-13.56,2.91-.58,7.65-1.58,11.48-2.41,10.31-2.16,17.46-5.49,17.46-11.73,0-3.83-2.58-5.99-5.9-5.99-2.74,0-4.74,1.83-4.99,4.07.5-.58,1.33-.92,2.16-.92,1.58,0,2.83,1.08,2.83,2.91s-1.5,3.24-3.49,3.24c-2.25,0-3.83-2-3.83-4.41,0-3.66,3.24-6.65,7.65-6.65,4.74,0,8.32,3.16,8.32,8.23,0,8.48-8.57,12.72-23.12,15.72Z"/>
  </g>
</svg>