<?xml version="1.0" encoding="UTF-8"?>
<svg id="Layer_1" xmlns="http://www.w3.org/2000/svg" version="1.1" viewBox="160 280 650 437">
  <!-- Generator: Adobe Illustrator 29.1.0, SVG Export Plug-In . SVG Version: 2.1.0 Build 142)  -->
  <defs>
    <style>
      .st0 {
        stroke: #e3173e;
        stroke-width: 3px;
      }

      .st0, .st1 {
        fill: #fff;
      }

      .st2 {
        fill: #e3173e;
      }
    </style>
  </defs>
  <path class="st0" d="M801.2,703.3c0,7.4-5.9,13.4-13.2,13.4H175.8c-7.3,0-13.2-6-13.2-13.4v-405.9c0-7.4,5.9-13.4,13.2-13.4h612.2c7.3,0,13.2,6,13.2,13.4v405.9Z"/>
  <path class="st2" d="M788.1,691.4c0,7-5.7,12.6-12.6,12.6H187.9c-7,0-12.6-5.6-12.6-12.6v-382.6c0-7,5.7-12.6,12.6-12.6h587.5c7,0,12.6,5.6,12.6,12.6v382.6Z"/>
  <rect class="st1" x="244.5" y="613.9" width="462.4" height="6.7"/>
  <g>
    <path class="st1" d="M334.1,437.5h-41.4l-2.7,15.3h24l-2.8,15.8h-24l-6,34.2h-16.2l14.3-81.1h57.6l-2.8,15.9Z"/>
    <path class="st1" d="M384.4,463.8l-6.8,38.9h-16l.8-4.1c-3.1,2.9-7.4,5.3-13.1,5.3-10.8,0-20.5-5.7-20.5-18.9s9.9-23,25.2-23,12.2,1.3,14.4,2.4l.3-2.4c.1-.7.1-1.4.1-2,0-4.3-2.9-6.4-10.5-6.4s-10.2,1.4-13.8,3.1l-4.2-11.4c4.3-2.5,12.4-5,20.1-5,14.4,0,24.6,5.3,24.6,18.1s-.1,3.2-.5,5.1ZM354.6,474.7c-6.4,0-9.5,3.8-9.5,8.7s3,7.1,8.8,7.1,8.9-3,10.8-5.6l1.4-7.6c-2.5-1.4-6.3-2.6-11.5-2.6Z"/>
    <path class="st1" d="M429.2,460.8c-1.7-1.9-5.3-4.2-9.4-4.2s-9.4,1.9-11.6,14.6l-5.6,31.5h-16l10.8-60.9h16l-.7,4.1c2.8-3.1,6.7-5.3,11.7-5.3s9.6,2.3,11.8,5.1l-7.1,15.1Z"/>
    <path class="st1" d="M522.8,468.4l-6,34.3h-15.9l5.8-32.9c.3-2.2.6-4.2.6-5.8,0-6.3-3.4-8.3-8.6-8.3s-9.7,4.2-11.4,13.8l-5.8,33.3h-16.1l5.8-32.9c.3-2.2.6-4.1.6-5.7,0-6.4-3.4-8.5-8.6-8.5s-9.7,4.2-11.4,13.8l-5.8,33.3h-16l10.7-60.9h16l-.7,4.1c2.9-2.7,7.2-5.3,13.1-5.3s12.8,2.5,16.3,7.8c3.5-2.9,9.9-7.8,19.5-7.8s18.7,6.8,18.7,19.2-.2,5.4-.8,8.6Z"/>
    <path class="st1" d="M309.4,555.8c5.2,3.2,8.6,8.6,8.6,15.5,0,17.6-13.2,27.4-32.2,27.4h-38l14.4-81.1h34c16.3,0,25.2,7.6,25.2,18.9s-5.9,16.1-11.8,19.4ZM288.9,562.3h-18.8l-3.7,21h21.7c7.8,0,13.1-4.2,13.1-11.7s-3.9-9.3-12.3-9.3ZM294.2,532.5h-18.9l-2.8,15.4h21.6c6.3,0,10.2-3,10.2-8.9s-3-6.5-10.1-6.5Z"/>
    <path class="st1" d="M325.2,572.1l6-34.3h16l-5.8,32.9c-.3,2.1-.5,3.8-.5,5.3,0,5.9,2.8,8.8,8.5,8.8s10.5-3.7,12.3-13.8l5.8-33.3h16l-10.7,60.9h-16l.7-4.1c-3.1,2.9-7.5,5.3-13.8,5.3-13.1,0-19.4-6.7-19.4-18.9s.3-5.9.8-8.9Z"/>
    <path class="st1" d="M425,556.7c-1.7-1.9-5.3-4.2-9.4-4.2s-9.4,1.9-11.6,14.6l-5.6,31.5h-16l10.8-60.9h16l-.7,4.1c2.8-3.1,6.7-5.3,11.7-5.3s9.6,2.3,11.8,5.1l-7.1,15.1Z"/>
    <path class="st1" d="M479.2,573.4h-35.9c-.9,8.3,5.8,11.5,11.4,11.5s8.1-1.3,12.2-4.1l7.8,11.1c-7.3,5.7-14.3,8-21.7,8-15.6,0-25.6-10-25.6-26.4s14-37,31.6-37,22.1,11.1,22.1,24.7-.7,8-1.9,12.2ZM456.6,550.5c-5.8,0-9.4,4.8-11.2,10.9h20.6c.6-5.8-2.2-10.9-9.4-10.9Z"/>
    <path class="st1" d="M537.9,559.7l-6.8,38.9h-16l.8-4.1c-3.1,2.9-7.4,5.3-13.1,5.3-10.8,0-20.5-5.7-20.5-18.9s9.9-23,25.2-23,12.2,1.3,14.4,2.4l.3-2.4c.1-.7.1-1.4.1-2,0-4.3-2.9-6.4-10.5-6.4s-10.2,1.4-13.8,3.1l-4.2-11.4c4.3-2.6,12.4-5,20.1-5,14.4,0,24.6,5.3,24.6,18.1s-.1,3.2-.5,5.1ZM508.1,570.6c-6.4,0-9.5,3.8-9.5,8.7s3,7.1,8.8,7.1,8.9-3,10.8-5.6l1.4-7.6c-2.5-1.4-6.3-2.6-11.5-2.6Z"/>
    <path class="st1" d="M544.3,572.1l6-34.3h16l-5.8,32.9c-.3,2.1-.5,3.8-.5,5.3,0,5.9,2.8,8.8,8.5,8.8s10.5-3.7,12.3-13.8l5.8-33.3h16l-10.7,60.9h-16l.7-4.1c-3.1,2.9-7.5,5.3-13.8,5.3-13.1,0-19.4-6.7-19.4-18.9s.3-5.9.8-8.9Z"/>
  </g>
  <g>
    <path class="st1" d="M538.9,637.3h-8l-4,22.5h-5.6l4-22.5h-8l1-5.5h21.5l-1,5.5Z"/>
    <path class="st1" d="M553.7,651.1h-12.4c-.3,2.9,2,4,3.9,4s2.8-.4,4.2-1.4l2.7,3.8c-2.5,2-4.9,2.8-7.5,2.8-5.4,0-8.8-3.4-8.8-9.1s4.8-12.8,10.9-12.8,7.6,3.8,7.6,8.5-.2,2.8-.6,4.2ZM545.9,643.1c-2,0-3.2,1.6-3.9,3.8h7.1c.2-2-.8-3.8-3.2-3.8Z"/>
    <path class="st1" d="M576.7,647.9l-2.1,11.8h-5.5l2-11.4c.1-.7.2-1.3.2-1.8,0-2-1-3-2.9-3s-3.6,1.3-4.2,4.8l-2,11.5h-5.5l3.7-21h5.5l-.2,1.4c1.1-1,2.6-1.8,4.8-1.8,4.5,0,6.7,2.3,6.7,6.5s-.1,2-.3,3.1Z"/>
    <path class="st1" d="M599.9,647.9l-2.1,11.8h-5.5l2-11.4c.1-.7.2-1.3.2-1.8,0-2-1-3-2.9-3s-3.6,1.3-4.2,4.8l-2,11.5h-5.5l3.7-21h5.5l-.2,1.4c1.1-1,2.6-1.8,4.8-1.8,4.5,0,6.7,2.3,6.7,6.5s-.1,2-.3,3.1Z"/>
    <path class="st1" d="M621.4,651.1h-12.4c-.3,2.9,2,4,3.9,4s2.8-.4,4.2-1.4l2.7,3.8c-2.5,2-4.9,2.8-7.5,2.8-5.4,0-8.8-3.4-8.8-9.1s4.8-12.8,10.9-12.8,7.6,3.8,7.6,8.5-.2,2.8-.6,4.2ZM613.6,643.1c-2,0-3.2,1.6-3.9,3.8h7.1c.2-2-.8-3.8-3.2-3.8Z"/>
    <path class="st1" d="M640.6,645.2c-1.6-1.1-4.2-2.2-6.6-2.2s-2.2.6-2.2,1.3.3,1.1,3.9,2.6c3.5,1.5,5.8,3.1,5.8,6.3,0,4.9-3.7,7-8.4,7s-7.8-1.6-9.6-3.2l2.6-4c2,1.3,4.4,2.4,7.6,2.4s2.2-.6,2.2-1.6-.6-1.3-2.6-2.1c-4.8-1.9-7.1-3.4-7.1-6.6s3-6.8,8.2-6.8,6.7,1.3,8.7,2.5l-2.5,4.4Z"/>
    <path class="st1" d="M661.4,645.2c-1.6-1.1-4.2-2.2-6.6-2.2s-2.2.6-2.2,1.3.3,1.1,3.9,2.6c3.5,1.5,5.8,3.1,5.8,6.3,0,4.9-3.7,7-8.4,7s-7.8-1.6-9.6-3.2l2.6-4c2,1.3,4.4,2.4,7.6,2.4s2.2-.6,2.2-1.6-.6-1.3-2.6-2.1c-4.8-1.9-7.1-3.4-7.1-6.6s3-6.8,8.2-6.8,6.7,1.3,8.7,2.5l-2.5,4.4Z"/>
    <path class="st1" d="M684,651.1h-12.4c-.3,2.9,2,4,3.9,4s2.8-.4,4.2-1.4l2.7,3.8c-2.5,2-4.9,2.8-7.5,2.8-5.4,0-8.8-3.4-8.8-9.1s4.8-12.8,10.9-12.8,7.6,3.8,7.6,8.5-.2,2.8-.6,4.2ZM676.2,643.1c-2,0-3.2,1.6-3.9,3.8h7.1c.2-2-.8-3.8-3.2-3.8Z"/>
    <path class="st1" d="M705.4,651.1h-12.4c-.3,2.9,2,4,3.9,4s2.8-.4,4.2-1.4l2.7,3.8c-2.5,2-4.9,2.8-7.5,2.8-5.4,0-8.8-3.4-8.8-9.1s4.8-12.8,10.9-12.8,7.6,3.8,7.6,8.5-.2,2.8-.6,4.2ZM697.6,643.1c-2,0-3.2,1.6-3.9,3.8h7.1c.2-2-.8-3.8-3.2-3.8Z"/>
  </g>
  <path class="st2" d="M827.9,713.9c-5.7,0-10.1-4.4-10.1-10.1s4.4-10.1,10.1-10.1,10.1,4.4,10.1,10.1-4.4,10.1-10.1,10.1ZM827.9,695.3c-4.8,0-8.5,3.7-8.5,8.5s3.7,8.5,8.5,8.5,8.5-3.7,8.5-8.5-3.7-8.5-8.5-8.5ZM830.2,704.7l2.3,4.4h-2.2l-2.2-4.3h-2.1v4.3h-1.9v-11h4.8c2,0,3.6,1,3.6,3.3s-.9,2.8-2.3,3.2ZM828.9,699.9h-2.9v3.1h2.9c1,0,1.8-.5,1.8-1.6s-.8-1.6-1.8-1.6Z"/>
</svg>