<?xml version="1.0" encoding="UTF-8"?>
<svg id="Layer_1" xmlns="http://www.w3.org/2000/svg" version="1.1" viewBox="0 0 479.2 81.3">
  <!-- Generator: Adobe Illustrator 29.1.0, SVG Export Plug-In . SVG Version: 2.1.0 Build 142)  -->
  <defs>
    <style>
      .st0 {
        isolation: isolate;
      }

      .st1 {
        fill: #fff;
      }
    </style>
  </defs>
  <g class="st0">
    <g class="st0">
      <path class="st1" d="M2.4,76.4V14.8h8.2v25.3h32V14.8h8.2v61.6h-8.2v-29H10.6v29H2.4Z"/>
    </g>
  </g>
  <g class="st0">
    <g class="st0">
      <path class="st1" d="M58,54.1c0-8.3,2.3-14.4,6.9-18.4,3.8-3.3,8.5-5,14-5s11.1,2,15,6,5.8,9.6,5.8,16.7-.9,10.3-2.6,13.6-4.2,5.8-7.5,7.7c-3.3,1.8-6.9,2.7-10.8,2.7-6.2,0-11.3-2-15.1-6-3.9-4-5.8-9.8-5.8-17.3h0ZM65.8,54.1c0,5.7,1.2,10,3.7,12.8s5.6,4.3,9.4,4.3,6.9-1.4,9.4-4.3,3.7-7.2,3.7-13.1-1.3-9.7-3.8-12.5-5.6-4.3-9.3-4.3-6.9,1.4-9.4,4.2-3.7,7.1-3.7,12.8h0Z"/>
    </g>
    <g class="st0">
      <path class="st1" d="M102.8,76.4V31.8h6.8v6.3c1.4-2.2,3.3-3.9,5.6-5.3,2.3-1.3,5-2,7.9-2s6,.7,8.1,2.1c2.1,1.4,3.6,3.3,4.5,5.8,3.5-5.2,8.1-7.8,13.8-7.8s7.8,1.2,10.2,3.7,3.6,6.2,3.6,11.3v30.6h-7.5v-28.1c0-3-.2-5.2-.7-6.5s-1.4-2.4-2.7-3.2-2.8-1.2-4.5-1.2c-3.1,0-5.7,1-7.8,3.1s-3.1,5.4-3.1,10v25.9h-7.6v-29c0-3.4-.6-5.9-1.8-7.6-1.2-1.7-3.2-2.5-6.1-2.5s-4.1.6-5.9,1.7-3.1,2.8-3.9,4.9c-.8,2.2-1.2,5.3-1.2,9.3v23.2h-7.7Z"/>
    </g>
    <g class="st0">
      <path class="st1" d="M206.5,62l7.8,1c-1.2,4.6-3.5,8.1-6.8,10.6s-7.6,3.8-12.8,3.8-11.7-2-15.5-6-5.7-9.7-5.7-16.9,1.9-13.3,5.8-17.5c3.9-4.1,8.9-6.2,15-6.2s10.8,2,14.6,6.1,5.7,9.8,5.7,17.1,0,1.1,0,2h-33.3c.3,4.9,1.7,8.7,4.2,11.3,2.5,2.6,5.6,3.9,9.3,3.9s5.1-.7,7.1-2.2,3.5-3.8,4.7-7h-.1ZM181.7,49.8h24.9c-.3-3.8-1.3-6.6-2.9-8.4-2.4-2.9-5.5-4.4-9.4-4.4s-6.4,1.2-8.8,3.5c-2.4,2.3-3.7,5.4-3.9,9.3h0Z"/>
    </g>
  </g>
  <g class="st0">
    <g class="st0">
      <path class="st1" d="M295.5,76.4V14.8h41.6v7.3h-33.4v19.1h28.9v7.3h-28.9v28h-8.2Z"/>
    </g>
  </g>
  <g class="st0">
    <g class="st0">
      <path class="st1" d="M363.2,70.9c-2.8,2.4-5.5,4.1-8.1,5s-5.4,1.5-8.3,1.5c-4.9,0-8.7-1.2-11.3-3.6-2.6-2.4-3.9-5.5-3.9-9.2s.5-4.2,1.5-6,2.3-3.3,3.9-4.3c1.6-1.1,3.4-1.9,5.4-2.5,1.5-.4,3.7-.8,6.7-1.1,6.1-.7,10.6-1.6,13.5-2.6v-2c0-3.1-.7-5.3-2.1-6.5-1.9-1.7-4.8-2.6-8.6-2.6s-6.2.6-7.9,1.9c-1.7,1.2-2.9,3.5-3.8,6.6l-7.4-1c.7-3.2,1.8-5.7,3.3-7.7,1.5-1.9,3.8-3.4,6.7-4.5,2.9-1,6.3-1.6,10.1-1.6s6.9.4,9.3,1.3,4.1,2,5.3,3.4c1.1,1.4,1.9,3.1,2.4,5.1.3,1.3.4,3.6.4,7v10.1c0,7,.2,11.5.5,13.3s1,3.6,1.9,5.4h-7.9c-.8-1.6-1.3-3.4-1.5-5.5h-.1ZM362.6,54c-2.7,1.1-6.9,2.1-12.4,2.9-3.1.4-5.3,1-6.6,1.5-1.3.6-2.3,1.4-3,2.5s-1.1,2.3-1.1,3.6c0,2,.8,3.7,2.3,5s3.8,2,6.7,2,5.5-.6,7.8-1.9,3.9-3,5-5.2c.8-1.7,1.2-4.2,1.2-7.6v-2.8h.1Z"/>
    </g>
    <g class="st0">
      <path class="st1" d="M379.2,76.4V31.8h6.8v6.8c1.7-3.2,3.3-5.3,4.8-6.3s3.1-1.5,4.9-1.5,5.1.8,7.8,2.4l-2.6,7c-1.8-1.1-3.7-1.6-5.5-1.6s-3.1.5-4.5,1.5c-1.3,1-2.3,2.4-2.8,4.1-.8,2.7-1.3,5.6-1.3,8.8v23.4h-7.6,0Z"/>
    </g>
    <g class="st0">
      <path class="st1" d="M415.4,76.4V31.8h6.8v6.3c1.4-2.2,3.3-3.9,5.6-5.3,2.3-1.3,5-2,7.9-2s6,.7,8.1,2.1c2.1,1.4,3.6,3.3,4.5,5.8,3.5-5.2,8.1-7.8,13.8-7.8s7.8,1.2,10.2,3.7,3.6,6.2,3.6,11.3v30.6h-7.5v-28.1c0-3-.2-5.2-.7-6.5s-1.4-2.4-2.7-3.2c-1.3-.8-2.8-1.2-4.5-1.2-3.1,0-5.7,1-7.8,3.1-2.1,2.1-3.1,5.4-3.1,10v25.9h-7.6v-29c0-3.4-.6-5.9-1.8-7.6s-3.2-2.5-6.1-2.5-4.1.6-5.9,1.7-3.1,2.8-3.9,4.9-1.2,5.3-1.2,9.3v23.2h-7.7Z"/>
    </g>
  </g>
  <g class="st0">
    <g class="st0">
      <path class="st1" d="M75.3,26.4v-13.3h-5.3v-2.7h14.1v2.7h-5.3v13.3h-3.6.1Z"/>
    </g>
    <g class="st0">
      <path class="st1" d="M89.1,26.4V10.4h13.2v2.7h-9.6v3.5h8.9v2.7h-8.9v4.4h9.9v2.7h-13.5Z"/>
    </g>
    <g class="st0">
      <path class="st1" d="M105.7,26.4V10.4h3.5l7.3,10.7v-10.7h3.3v16h-3.6l-7.2-10.4v10.4s-3.3,0-3.3,0Z"/>
    </g>
    <g class="st0">
      <path class="st1" d="M126.4,26.4V10.4h3.5l7.3,10.7v-10.7h3.3v16h-3.6l-7.2-10.4v10.4s-3.3,0-3.3,0Z"/>
    </g>
    <g class="st0">
      <path class="st1" d="M147.1,26.4V10.4h13.2v2.7h-9.6v3.5h8.9v2.7h-8.9v4.4h9.9v2.7h-13.5,0Z"/>
    </g>
    <g class="st0">
      <path class="st1" d="M163,21.2l3.5-.3c.2,1.1.6,1.8,1.3,2.3.6.5,1.5.7,2.6.7s2-.2,2.6-.7c.6-.4.9-1,.9-1.5s-.1-.7-.4-1c-.2-.3-.7-.5-1.3-.7-.4-.1-1.4-.4-2.9-.7-1.9-.4-3.3-1-4-1.6-1.1-.9-1.6-2-1.6-3.2s.3-1.6.8-2.3,1.3-1.2,2.2-1.6c1-.4,2.1-.6,3.5-.6,2.2,0,3.9.4,5,1.3s1.7,2.1,1.8,3.5h-3.6c-.2-.7-.5-1.3-1-1.6-.5-.4-1.3-.5-2.3-.5s-1.9.2-2.4.6c-.4.2-.6.6-.6,1s.2.7.5,1c.5.3,1.5.7,3.3,1.1s3,.8,3.9,1.2,1.5.9,2,1.6.7,1.5.7,2.5-.3,1.8-.8,2.6c-.6.8-1.4,1.4-2.4,1.8s-2.3.6-3.9.6-4-.5-5.2-1.4-1.9-2.3-2.2-4.1h0Z"/>
    </g>
    <g class="st0">
      <path class="st1" d="M178.1,21.2l3.5-.3c.2,1.1.6,1.8,1.3,2.3.6.5,1.5.7,2.6.7s2-.2,2.6-.7c.6-.4.9-1,.9-1.5s-.1-.7-.4-1c-.2-.3-.7-.5-1.3-.7-.4-.1-1.4-.4-2.9-.7-1.9-.4-3.3-1-4-1.6-1.1-.9-1.6-2-1.6-3.2s.3-1.6.8-2.3,1.3-1.2,2.2-1.6c1-.4,2.1-.6,3.5-.6,2.2,0,3.9.4,5,1.3s1.7,2.1,1.8,3.5h-3.6c-.2-.7-.5-1.3-1-1.6-.5-.4-1.3-.5-2.3-.5s-1.9.2-2.4.6c-.4.2-.6.6-.6,1s.2.7.5,1c.5.3,1.5.7,3.3,1.1s3,.8,3.9,1.2,1.5.9,2,1.6.7,1.5.7,2.5-.3,1.8-.8,2.6c-.6.8-1.4,1.4-2.4,1.8s-2.3.6-3.9.6-4-.5-5.2-1.4-1.9-2.3-2.2-4.1h0Z"/>
    </g>
    <g class="st0">
      <path class="st1" d="M193.8,26.4V10.4h13.2v2.7h-9.6v3.5h8.9v2.7h-8.9v4.4h9.9v2.7h-13.5,0Z"/>
    </g>
    <g class="st0">
      <path class="st1" d="M210.6,26.4V10.4h13.2v2.7h-9.6v3.5h8.9v2.7h-8.9v4.4h9.9v2.7h-13.5,0Z"/>
    </g>
  </g>
  <g class="st0">
    <g class="st0">
      <path class="st1" d="M263.9,69c-4.1,3.4-7.7,5.7-10.7,6.9-3,1.2-6.2,1.8-9.8,1.8-6.6,0-12-1.9-16-5.8s-6.1-8.8-6.1-14.7.8-7.2,2.3-10.2,3.8-5.6,6.7-8c2.3-1.8,5.7-3.7,10.2-5.7-1.7-3.8-2.8-6.4-3.1-7.7-.5-1.9-.7-3.8-.7-6s.8-5.6,2.3-8.5c1.6-2.9,3.8-5.1,6.6-6.7,2.9-1.6,6-2.4,9.3-2.4s8.5,1.4,11.3,4.1c2.9,2.7,4.3,6,4.3,9.9s-1.2,6.5-3.7,9.8c-2.5,3.2-7.3,6.7-14.5,10.3,4.3,7.9,8.5,14.3,12.5,19.4,2.4-3,4.7-6.4,6.9-10.4l7.9,4c-2.2,4.6-5.2,9.1-9.1,13.5,2.2,2.8,5,6.1,8.4,10l-6.8,5.4c-3.4-2.9-6.2-5.8-8.4-8.9h.2ZM258.7,62.1c-6.2-8.1-11-15.4-14.5-21.8-4.5,2.1-7.7,4.2-9.7,6.2-2.7,2.8-4,6-4,9.7s1.3,7,3.9,9.6c2.6,2.6,5.7,3.9,9.4,3.9s10-2.5,14.9-7.5h0ZM249.1,29.2c4.9-2.5,8.4-5,10.5-7.7,1.5-1.8,2.2-3.6,2.2-5.5s-.7-3.6-2-5-3-2-4.9-2-4.4.9-6.1,2.8-2.7,4.1-2.7,6.7,1,6.7,3.1,10.6h-.1Z"/>
    </g>
  </g>
</svg>