<svg viewBox="0 0 490.4 73.2" xmlns="http://www.w3.org/2000/svg"><g fill="#fff"><path d="m13 70.6c-3.6 0-8.6.3-12 .3v-5.9h2.9c2.2 0 3.2-.3 3.6-1.1.3-.8.4-2.8.4-5.2 0-6.9 0-15.1 0-18.3 0-6.9 0-13.8 0-15.9s0-4.3-.4-5.1-1.4-1.1-3.6-1.1-1.7 0-2.8 0v-5.9c3.4.2 8.3.3 11.9.3s10.2-.2 12.6-.3v5.9c-1.3 0-2.6 0-3.2 0-2 0-2.7.3-3.1 1-.6.8-.7 2.1-.8 5.2 0 1.7-.2 5.3-.2 9.8s0 2 .9 2.2c.9.3 3.4.3 12.7.3s11.4 0 12.4-.3c.6-.2.8-.7.8-2.2 0-4 0-8.4 0-9.9 0-2.5 0-4.3-.5-5.1s-1.4-1.1-3.6-1.1-1.7 0-2.8 0v-5.9c3.4 0 8.1.3 11.7.3s10.3-.2 12.7-.3v5.9c-1.4 0-2.5 0-3.2 0-2 0-2.7.3-3.1 1-.5.9-.7 2.1-.8 5.2 0 3.5-.2 5.3-.2 15.8s0 15.3.2 18.4c0 3.1.2 4.6.8 5.3.3.7 1.1 1 3.1 1s1.9 0 3.2 0v5.9c-2.5 0-9.1-.3-12.7-.3s-8.4.3-11.8.3v-5.9h2.8c2.2 0 3.2-.3 3.6-1.1s.5-2.8.5-5.2c0-4.5 0-9.5 0-12.8s0-1.7-.6-2.1c-.5-.3-3.2-.4-12.6-.4s-12.4.2-12.9.4c-.6.3-.7 1-.7 2.1 0 5.2 0 10.6.2 12.8 0 3.1.2 4.6.8 5.3.4.7 1.1 1 3.1 1s1.9 0 3.2 0v5.9c-2.8-.2-8.9-.3-12.6-.3z"/><path d="m81.3 72c-12.3 0-19.9-9.1-19.9-20.6s8.9-23.1 22.5-23.1 19.4 8.3 19.4 20.3-8.3 23.3-22 23.3zm1.2-37.5c-7.1 0-10.9 5.8-10.9 14.2s4.4 17.1 11.4 17.1 10.6-4.5 10.6-14.4-2.3-17-11-17z"/><path d="m113.9 70.6c-3.6 0-8 .3-11.3.3v-5.8h2.2c2.3 0 3.4-.4 3.9-1.2s.5-2.7.6-5.2c0-4 0-7.1 0-9.7 0-7.1 0-9.9-.5-11.5-.3-1.4-1.5-2-4.2-2s-1.2 0-2 0v-5.8c4.4 0 11.2-.2 15.7-1.5l.9 1c-.3 2.4-.3 4.3-.4 6.2 4.8-4.1 10.1-7.3 15-7.3s8.3 2.1 9.9 7.7c5-4.6 11.3-7.7 16-7.7s8.5 2.2 10.1 7.6c.9 3.4 1 7.6 1 13.2v9.7c0 3.2 0 4.6.4 5.3.5.7 1.5 1 3.4 1s1.4 0 2.4 0v5.8c-2.4 0-7.3-.3-10.9-.3s-7.8.3-10.8.3v-5.8h1.7c1.6 0 2.8-.5 3.3-1.3.9-1.5 1-3.7 1-9.4 0-9.2-.3-13.8-1.8-15.9-1.1-1.5-3-2.2-4.8-2.2-2.8 0-6 1.3-8.3 3.9-1.6 2-1.8 5.6-1.8 8.9v9.7c0 3.2.2 4.6.6 5.3s1.3 1 3.2 1 1.2 0 2.2 0v5.8c-2.4 0-7-.3-10.6-.3s-7.6.3-10.9.3v-5.8h2c1.9 0 2.8-.5 3.2-1.3.9-1.5.9-4 .9-9.4 0-9.2-.2-13.3-1.8-15.7-1-1.5-2.7-2.4-4.7-2.4s-6.1 1-8.3 4.1c-1.5 1.9-1.7 5.4-1.7 8.7s0 6.1 0 9.6c0 3.2.2 4.6.6 5.3s1.2 1 3 1 1.1 0 2.2 0v5.8c-2.5 0-6.9-.3-10.8-.3z"/><path d="m195.6 72.1c-12 0-19-8.2-19-20.3s8.6-23.4 21.6-23.4 15.7 6.5 15.7 16.3-.9 4.1-3.5 4.3c-4.6.3-13.3.4-23.9.5v2.2c0 5.8 2.9 12.6 12.1 12.6s8.7-2.3 12.3-6.2l4.1 3.9c-4.9 6.1-10.8 10.1-19.3 10.1zm-7.4-28.2h5c5.8 0 8.8-.3 9.8-1 .5-.4.9-1.5.9-2.3 0-4.6-3.3-6.4-7.1-6.4s-7.9 1.8-9.4 6.5c-.2.7-.3 1.6-.3 2.2s.3 1 1.1 1z"/><path d="m306.8 70.6c-3.6 0-9.9.3-12.8.3v-5.9h2.6c2.5 0 3.4-.3 3.9-1.3.3-.8.4-2.5.4-5 0-6.9 0-15.1 0-18.3 0-6.9 0-13.8 0-15.9s0-4.3-.4-5.2c-.3-.7-1.6-1-3.9-1s-1.8 0-2.6 0v-5.9c2.2 0 10.2.3 13.9.3 11.3 0 21.5 0 30.7-.3.2 3.7.7 11.5 1.2 15.9l-5.5.3c-1-6.1-2.3-7.7-3.4-8.5-1.5-1.2-4-1.6-11.4-1.6s-4.2 0-6.1.2c-1.3 0-1.8 1-1.9 1.8-.3 2.5-.3 9-.3 15.5s.3 1.6.9 1.8c.7.2 2.1.3 4.3.3 5.7 0 7.1-.4 8.1-1.6.8-1 1.2-2.7 1.4-5.1h5.1c0 2.4-.3 7.2-.3 10.2s.2 8.3.3 10.3h-5.2c-.2-3.8-.9-5.4-1.9-6.1-1.2-.9-2.8-1.4-7.7-1.4s-3.9.3-4.2.5c-.4.3-.7.9-.7 2 0 4.7 0 8.7.3 11.5.2 3 .8 4.4 1.6 5.2.9.8 2.2 1.2 4.4 1.2s1.6 0 3 0v5.9c-2.4 0-10-.3-13.6-.3z"/><path d="m346.6 71.9c-7.6 0-12.5-5.7-12.5-12s3.4-8.7 7.7-10.1c4.1-1.4 9.1-2 14.7-3 3-.5 3.6-1.2 3.6-3.6 0-6.7-2.4-8.6-7.4-8.6s-3.6.6-4.4 1.5c-.7.7-1.1 1.8-1.3 3.4-.3 2.2-2.4 3-4.6 3s-4.6-1.1-4.6-4.4c0-5.2 6.2-9.6 17.6-9.6s14 2.7 14 11.7-.5 11.2-.5 17.9 1.5 7 3.4 7 2.2-.3 3.1-.6l1 5.5c-2.3.9-6.2 1.7-8.8 1.7-4.5 0-7.3-1-8.2-5.8-4.3 4.3-9 6-13 6zm11.4-19.5c-2.2 0-6.8.9-9.6 1.8-2.7.9-4.3 2.2-4.3 5s2.2 5.2 5.8 5.2 5.2-.9 7-2.3c2.1-1.7 2.8-4.2 2.8-7.8s-.7-1.9-1.7-1.9z"/><path d="m390.3 70.6c-3.6 0-8.4.3-11.2.3v-5.8h2.2c2.2 0 3.4-.3 3.9-1.3.5-.8.6-3 .6-4.6 0-3.4 0-7.7 0-10.3 0-4.9 0-9.2-.5-11.2-.3-1.5-1.5-2.2-4.1-2.2s-1 0-2.1 0v-5.8c6.1 0 11.9-.3 15.7-1.5l.9.9c-.2 2.2-.3 4-.4 6.8 3.9-5.2 8.4-7.8 12.2-7.8s5.7 1.7 5.7 4.8-2.1 5.4-4.7 5.4-2.4-.4-3.6-1.3c-.8-.6-1.5-.6-2.2-.6-1.5 0-4.4 1.6-6 4.8-.9 1.8-1.4 4.5-1.4 8.5s0 6.2 0 8.9c0 3.2.2 4.5.7 5.2.4.8 1.7 1.1 3.7 1.1s2.2 0 3.6 0v5.7c-4-.3-9.5-.3-13.1-.3z"/><path d="m426.5 70.6c-3.6 0-8 .3-11.3.3v-5.8h2.2c2.3 0 3.4-.4 3.9-1.2s.5-2.7.6-5.2c0-4 0-7.1 0-9.7 0-7.1 0-9.9-.5-11.5-.3-1.4-1.5-2-4.2-2s-1.2 0-2 0v-5.8c4.4 0 11.2-.2 15.7-1.5l.9 1c-.3 2.4-.3 4.3-.4 6.2 4.8-4.1 10.1-7.3 15-7.3s8.3 2.1 9.9 7.7c5-4.6 11.3-7.7 16-7.7s8.5 2.2 10.1 7.6c.9 3.4 1 7.6 1 13.2v9.7c0 3.2 0 4.6.4 5.3.5.7 1.5 1 3.4 1s1.4 0 2.4 0v5.8c-2.4 0-7.3-.3-10.9-.3s-7.8.3-10.8.3v-5.8h1.7c1.6 0 2.8-.5 3.3-1.3.9-1.5 1-3.7 1-9.4 0-9.2-.3-13.8-1.8-15.9-1.1-1.5-3-2.2-4.8-2.2-2.8 0-6 1.3-8.3 3.9-1.6 2-1.8 5.6-1.8 8.9v9.7c0 3.2.2 4.6.6 5.3s1.3 1 3.2 1 1.2 0 2.2 0v5.8c-2.4 0-7-.3-10.6-.3s-7.6.3-10.9.3v-5.8h2c1.9 0 2.8-.5 3.2-1.3.9-1.5.9-4 .9-9.4 0-9.2-.2-13.3-1.8-15.7-1-1.5-2.7-2.4-4.7-2.4s-6.1 1-8.3 4.1c-1.5 1.9-1.7 5.4-1.7 8.7s0 6.1 0 9.6c0 3.2.2 4.6.6 5.3s1.2 1 3 1 1.1 0 2.2 0v5.8c-2.5 0-6.9-.3-10.8-.3z"/><path d="m80.9 20.7c-1 0-3.5 0-4.2 0v-1.9h.9c.6 0 .9 0 1-.3.1-.2.2-.6.2-1.4 0-1.7 0-3.4 0-4.3 0-1.4 0-3.6 0-4.5 0-.4 0-.6-.2-.7-.1-.2-.6-.2-1.3-.2-1.5 0-1.8.4-2.4 2.8h-2.1c.2-1.5.4-3.4.5-4.7h7.3s6.4 0 7.9 0c0 1.4 0 3.3.1 4.6h-2.3c-.3-2.3-.6-2.7-2.2-2.7s-1.1 0-1.2.2-.2.3-.2.8v4.4s0 2.4 0 4.2c0 .8 0 1.2.2 1.5.1.2.3.3 1.2.3s.4 0 .7 0v1.9c-.9 0-3 0-4 0z"/><path d="m94.9 20.7c-1 0-3.1 0-4 0v-1.9h.8c.6 0 .9-.1 1-.3 0-.2.1-.7.1-1.3 0-1.7 0-3.5 0-4.4 0-1.3 0-3.2 0-3.8s0-1.1-.2-1.3c-.1-.2-.3-.3-1-.3s-.5 0-.8 0v-1.9h4c3.2 0 7.9 0 9.2-.1 0 1 .1 2.7.3 3.9h-1.9c-.2-1-.4-1.4-.8-1.6s-.9-.4-2.5-.4-1.1 0-1.7 0c-.3 0-.5.2-.6.4-.1.4-.1.9-.1 3s0 .7.2.8h1.4s1.5-.1 1.8-.4.4-.8.4-1.3h1.9v2.9s0 2 0 2.5h-1.9c0-.8-.2-1.2-.5-1.4-.4-.2-1.1-.3-1.7-.3-1.1 0-1.4 0-1.5.1s-.1.3-.1.5c0 2.8.1 3.4.4 3.8s.6.6 2.1.6 2.3 0 2.9-.5c.5-.4 1.1-1.1 1.3-2.5h2.1c-.1 1-.5 3.3-.6 4.8-1.7 0-6.5 0-10 0z"/><path d="m110.3 20.7c-1 0-2.4 0-3 0v-1.9h.7c.4 0 .8 0 1-.2s.3-.7.3-1.5c0-3.4 0-6.6 0-7.7s0-1.3-.4-1.6c-.1-.1-.4-.3-.9-.3-.2 0-.5 0-.8 0v-1.9h3.7s2.2 0 2.5 0c.3.5.7 1.1 1.5 2 1.2 1.4 3.2 3.6 6.5 7.1 0-3 0-4.2-.1-5.6 0-.8-.1-1.1-.3-1.3s-.5-.3-1.1-.3-.5 0-.8 0v-1.9h3.6s2.3 0 3 0v1.9c-.4 0-.4 0-.6 0-.3 0-.8 0-1 .2s-.3.7-.3 1.5v5.2c0 2.8 0 5.3.2 6.2l-2.1.4c-2.8-3.2-8.2-9.1-10.4-11.4 0 3 .1 6.3.2 7.7 0 .8.1 1.1.3 1.3.1.2.4.3 1.1.3s.6 0 .9 0v1.9c-.8 0-2.6 0-3.7 0z"/><path d="m131.1 20.7c-1 0-2.4 0-3 0v-1.9h.7c.4 0 .8 0 1-.2s.3-.7.3-1.5c0-3.4 0-6.6 0-7.7s0-1.3-.4-1.6c-.1-.1-.4-.3-.9-.3-.2 0-.5 0-.8 0v-1.9h3.7s2.2 0 2.5 0c.3.5.7 1.1 1.5 2 1.2 1.4 3.2 3.6 6.5 7.1 0-3 0-4.2-.1-5.6 0-.8-.1-1.1-.3-1.3s-.5-.3-1.1-.3-.5 0-.8 0v-1.9h3.6s2.3 0 3 0v1.9c-.4 0-.4 0-.6 0-.3 0-.8 0-1 .2s-.3.7-.3 1.5v5.2c0 2.8 0 5.3.2 6.2l-2.1.4c-2.8-3.2-8.2-9.1-10.4-11.4 0 3 .1 6.3.2 7.7 0 .8.1 1.1.3 1.3.1.2.4.3 1.1.3s.6 0 .9 0v1.9c-.8 0-2.6 0-3.7 0z"/><path d="m152.8 20.7c-1 0-3.1 0-4 0v-1.9h.8c.6 0 .9-.1 1-.3 0-.2.1-.7.1-1.3 0-1.7 0-3.5 0-4.4 0-1.3 0-3.2 0-3.8s0-1.1-.2-1.3c-.1-.2-.3-.3-1-.3s-.5 0-.8 0v-1.9h4c3.2 0 7.9 0 9.2-.1 0 1 .1 2.7.3 3.9h-1.9c-.2-1-.4-1.4-.8-1.6s-.9-.4-2.5-.4-1.1 0-1.7 0c-.3 0-.5.2-.6.4-.1.4-.1.9-.1 3s0 .7.2.8h1.4s1.5-.1 1.8-.4.4-.8.4-1.3h1.9v2.9s0 2 0 2.5h-1.9c0-.8-.2-1.2-.5-1.4-.4-.2-1.1-.3-1.7-.3-1.1 0-1.4 0-1.5.1s-.1.3-.1.5c0 2.8.1 3.4.4 3.8s.6.6 2.1.6 2.3 0 2.9-.5c.5-.4 1.1-1.1 1.3-2.5h2.1c-.1 1-.5 3.3-.6 4.8-1.7 0-6.5 0-10 0z"/><path d="m166.2 20.8c0-1.3-.2-3.9-.4-5.1h2.1c.4 2.1 2 3.4 4.1 3.4s2.9-.6 2.9-1.8-.5-1.6-2.5-2.4l-1.9-.8c-2.7-1.1-4-2.3-4-4.6s1.9-4.3 6-4.3 1.4.1 1.8.2c.4 0 .7.2.9.2s.5-.1.6-.4h1.6c0 1.1.2 3.4.4 4.6h-2.1c-.3-1.7-.9-2.9-3.2-2.9s-2.6.6-2.6 1.8.4 1.5 2.2 2.2l1.6.6c3.5 1.3 4.6 2.5 4.6 4.8s-2.6 4.5-6.1 4.5-1.9-.2-2.5-.4c-.5-.2-.8-.3-1-.3-.3 0-.5 0-.6.5h-1.8z"/><path d="m181.3 20.8c0-1.3-.2-3.9-.4-5.1h2.1c.4 2.1 2 3.4 4.1 3.4s2.9-.6 2.9-1.8-.5-1.6-2.5-2.4l-1.9-.8c-2.7-1.1-4-2.3-4-4.6s1.9-4.3 6-4.3 1.4.1 1.8.2c.4 0 .7.2.9.2s.5-.1.6-.4h1.6c0 1.1.2 3.4.4 4.6h-2.1c-.3-1.7-.9-2.9-3.2-2.9s-2.6.6-2.6 1.8.4 1.5 2.2 2.2l1.6.6c3.5 1.3 4.6 2.5 4.6 4.8s-2.6 4.5-6.1 4.5-1.9-.2-2.5-.4c-.5-.2-.8-.3-1-.3-.3 0-.5 0-.6.5h-1.8z"/><path d="m199.6 20.7c-1 0-3.1 0-4 0v-1.9h.8c.6 0 .9-.1 1-.3 0-.2.1-.7.1-1.3 0-1.7 0-3.5 0-4.4 0-1.3 0-3.2 0-3.8s0-1.1-.2-1.3c-.1-.2-.3-.3-1-.3s-.5 0-.8 0v-1.9h4c3.2 0 7.9 0 9.2-.1 0 1 .1 2.7.3 3.9h-1.9c-.2-1-.4-1.4-.8-1.6s-.9-.4-2.5-.4-1.1 0-1.7 0c-.3 0-.5.2-.6.4-.1.4-.1.9-.1 3s0 .7.2.8h1.4s1.5-.1 1.8-.4.4-.8.4-1.3h1.9v2.9s0 2 0 2.5h-1.9c0-.8-.2-1.2-.5-1.4-.4-.2-1.1-.3-1.7-.3-1.1 0-1.4 0-1.5.1s-.1.3-.1.5c0 2.8.1 3.4.4 3.8s.6.6 2.1.6 2.3 0 2.9-.5c.5-.4 1.1-1.1 1.3-2.5h2.1c-.1 1-.5 3.3-.6 4.8-1.7 0-6.5 0-10 0z"/><path d="m216.3 20.7c-1 0-3.1 0-4 0v-1.9h.8c.6 0 .9-.1 1-.3 0-.2.1-.7.1-1.3 0-1.7 0-3.5 0-4.4 0-1.3 0-3.2 0-3.8s0-1.1-.2-1.3c-.1-.2-.3-.3-1-.3s-.5 0-.8 0v-1.9h4c3.2 0 7.9 0 9.2-.1 0 1 .1 2.7.3 3.9h-1.9c-.2-1-.4-1.4-.8-1.6s-.9-.4-2.5-.4-1.1 0-1.7 0c-.3 0-.5.2-.6.4-.1.4-.1.9-.1 3s0 .7.2.8h1.4s1.5-.1 1.8-.4.4-.8.4-1.3h1.9v2.9s0 2 0 2.5h-1.9c0-.8-.2-1.2-.5-1.4-.4-.2-1.1-.3-1.7-.3-1.1 0-1.4 0-1.5.1s-.1.3-.1.5c0 2.8.1 3.4.4 3.8s.6.6 2.1.6 2.3 0 2.9-.5c.5-.4 1.1-1.1 1.3-2.5h2.1c-.1 1-.5 3.3-.6 4.8-1.7 0-6.5 0-10 0z"/><path d="m274.8 71.7c-4.5 0-7.4-2.1-11.8-7.3-4.8 3.9-10.5 7.6-21.2 7.6s-21.5-8.9-21.5-20.6 8.4-19.3 21-22.5c-1.5-3.5-3-7.6-3-10.8 0-10.6 7.5-17.2 18.8-17.2s12.3 3.7 12.3 8-1.7 3.8-4 3.8-3.4-.7-3.7-3.2c-.4-3.7-2.5-4.6-6.5-4.6-6.9 0-10.8 5.1-10.8 11.9s.4 6.3 3.2 12.3c3.1 6.7 10.5 19.3 17.1 27.7 4-4.4 10.3-14.1 10.3-18.4s-1.8-3.2-6-3.2-1.5 0-2.4.1l.7-3.7c3.8.2 8.4.2 12.1.3 3.8 0 8.9-.2 11.4-.3l-.7 3.7c-.6-.1-1.8-.1-2.4-.1-1.9 0-3.4.7-4.7 2.4s-2.2 3.9-5.1 8.7c-3.5 5.9-7.4 11-10.4 13.9 2.4 3.5 5.8 5.8 9 5.8s5.9-2.7 8.3-6l3.5 2.2c-4 5.2-7.6 9.5-13.4 9.5zm-31-36.7c-.7-1.2-1.2-1.6-2.3-1.6s-1.9.3-3 .7c-6.9 2.7-11.9 8.1-11.9 15.8s6.4 17 17.5 17 12.4-2.7 16.3-6c-5.5-7.2-13.1-19.6-16.6-25.9z"/></g></svg>