<svg viewBox="0 0 229.7 50" xmlns="http://www.w3.org/2000/svg"><g fill="#fff"><path d="m219.3 27.2c2.7 0 3 3.3 2.4 5.9h-5.7c.1-2.9.9-5.9 3.3-5.9m2.4 12.7c0 1.7-1 2.7-2.7 2.7s-3-2.6-3.1-5.8h10.9c.4 0 .7-.3.7-.6 1.5-9-2.8-13.3-8.3-13.3s-9.6 5.5-9.6 12.2 2.8 11.9 9.4 11.9 8.4-1 8.3-7c0-.3-.3-.6-.7-.6h-4.3c-.3-.1-.6.2-.6.5m-34.2-11.9c1.4 0 2.5.7 2.5 3.2v14.7c0 .4.3.6.6.6h4.5c.4 0 .6-.3.6-.6v-14.7c0-1.8.9-3.2 2.4-3.2s2.5.7 2.5 3.2v14.7c0 .4.3.6.6.6h4.5c.4 0 .6-.3.6-.6v-16.3c0-4.3-2.4-6.7-5.6-6.7s-4.4 1.2-5.7 3.7c-.8-2.4-2.7-3.7-5.1-3.7s-4.4 1.2-5.7 3.8l-.2-2.7c0-.4-.3-.6-.7-.6h-3.3c-.4 0-.6.3-.6.6v21.9c0 .4.3.6.6.6h4.5c.4 0 .6-.3.6-.6v-14.7c0-1.8 1-3.2 2.4-3.2m-20.6-.8c3 0 3.1 4.9 3.1 7.7s-.1 7.7-3.1 7.7-3.1-4.9-3.1-7.7.1-7.7 3.1-7.7m0-4.3c-6.5 0-9.3 5.2-9.3 12s2.8 12 9.3 12 9.4-5.2 9.4-12-2.8-12-9.4-12m-13.2 23.6c.4 0 .6-.3.6-.6v-31c0-.4-.3-.6-.6-.6h-4.7c-.4 0-.6.3-.6.6v12.7h-9.3v-12.8c0-.4-.3-.6-.6-.6h-4.7c-.4 0-.6.3-.6.6v31c0 .4.3.6.6.6h4.7c.4 0 .6-.3.6-.6v-12.7h9.3v12.7c0 .4.3.6.6.6h4.7zm-40.9-10.7v5.9c-.6.6-1.3.9-2.2.9-1.8 0-2.8-1.7-2.8-3.2s.6-2.8 1.9-3.1zm4.7 11.2c.8 0 1.8 0 2.7-.3.4 0 .6-.4.6-.8v-1.9c0-.2-.2-.4-.4-.4h-.5c-.7 0-1.4-.3-1.4-1.4v-12.4c0-5.4-4.3-6.9-8-6.9s-9 1.1-8 7.6c0 .4.4.6.8.6h4.3c.4 0 .6-.3.6-.6-.3-1.9 0-3.8 2.4-3.8s2.1 1.6 2.1 2.9v2.4c0 .3-.2.7-.7.7l-2.4.3c-4 .6-8.2 1.4-8.2 6.9s3.1 6.9 6.5 6.9 3.8-1.1 5.4-2.8c.4 2.1 2 3 4.2 3m-27.4-19c1.6 0 2.7.8 2.7 3.6v14.3c0 .4.3.6.6.6h4.6c.4 0 .6-.3.6-.6v-16.3c0-4.3-2.7-6.7-6-6.7s-4.6 1.2-5.9 3.8v-2.7c0-.4-.4-.6-.8-.6h-3.7c-.4 0-.6.3-.6.6v21.9c0 .4.3.6.6.6h4.5c.4 0 .6-.3.6-.6v-14.3c0-2 1.1-3.6 2.8-3.6m-18.7 7.8v5.9c-.6.6-1.3.9-2.2.9-1.8 0-2.8-1.7-2.8-3.2s.6-2.8 1.9-3.1zm4.8 11.2c.8 0 1.8 0 2.7-.3.4 0 .6-.4.6-.8v-1.9c0-.2-.2-.4-.4-.4h-.5c-.7 0-1.4-.3-1.4-1.4v-12.4c0-5.4-4.3-6.9-8-6.9s-9 1.1-8 7.6c0 .4.4.6.8.6h4.3c.4 0 .6-.3.6-.6-.3-1.9 0-3.8 2.4-3.8s2.1 1.6 2.1 2.9v2.4c0 .3-.2.7-.7.7l-2.4.3c-4 .6-8.2 1.4-8.2 6.9s3.1 6.9 6.5 6.9 3.8-1.1 5.4-2.8c.3 2.1 2 3 4.2 3m-19.6-27c.4 0 .6-.3.6-.6v-4.5c0-.4-.3-.6-.6-.6h-4.5c-.4 0-.6.3-.6.6v4.5c0 .4.3.6.6.6zm0 26.5c.4 0 .6-.3.6-.6v-21.9c0-.4-.3-.6-.6-.6h-4.5c-.4 0-.6.3-.6.6v21.9c0 .4.3.6.6.6zm-38-18.5c1.6 0 2.7.8 2.7 3.6v14.3c0 .4.3.6.6.6h4.6c.4 0 .6-.3.6-.6v-16.3c0-4.3-2.7-6.7-6-6.7s-4.6 1.2-5.9 3.8v-2.7c-.1-.4-.4-.6-.8-.6h-3.7c-.4 0-.6.3-.6.6v21.9c0 .4.3.6.6.6h4.5c.4 0 .6-.3.6-.6v-14.3c0-2 1.1-3.6 2.8-3.6m-12.7 18.5c.4 0 .6-.3.6-.6v-31c0-.4-.3-.6-.6-.6h-4.7c-.4 0-.6.3-.6.6v31c0 .4.3.6.6.6z"/><path d="m29.9 12v.2c-.4.3-.3.6-.5 1l-.5 1-.3.7c-.2.4-.3.6-.5 1-.3.7-.8 1.6-1.1 2h-.1c-.5.8-.9 1.9-2.4 1.8-1.4-.1-1.8-1.2-1.8-2.4s-.1-1.6.1-2.5c.1-.8.2-1.7.3-2.6 0-.4.1-.8.1-1.2s-.3-1-.7-.8c-.6.3-1 .8-1.4 1.6l-.4.9c-.1.3-.4.7-.5 1-.1.5-.3 1-.6 1.5l-.2.8c-.3.8-.5 1.7-.8 2.5-.1.1-.1.3-.2.4l-.2.5c0 .3-.2.3-.4.2h-.1c-.3-.1-.6-.1-.8-.4h-.1c-.2-.2-.3-.5-.3-.8 0-.6 0-1.1-.1-1.6v-2.4c-.1-1.1-.2-2.1-.2-3.2s0-.3-.1-.5c0-.1-.1-.1-.2-.1-.2.1-.3.3-.5.4-.4.5-.5.8-.7 1.4l-.3 1c0 .1-.1.2-.1.3 0 .4-.1.7-.3 1-.1.2-.1.4-.2.6 0 .2-.1.4-.1.6-.2.6-.3 1.2-.5 1.7-.1.5-.3 1-.4 1.5-.1.3-.1.6-.2.8 0 .1 0 .2-.1.3-.1.2-.3.2-.4.1-.4-.5-1.1.1-1.4-.6-.2-.5-.3-1-.2-1.5v-.5c0-.6 0-1.3.1-1.9.1-.3 0-.6.1-1l.3-3.7c.1-.4.1-3.4.7-3.3h.4c.5.2 1 .4 1.2.9.1.1.1.2.1.3 0 .2 0 .4.1.7 0 .2.1.3 0 .5v.2c.1.5 0 .9 0 1.4v.6c.2-.2.3-.4.3-.6.2-.5.4-.9.6-1.3.3-.6.7-1 1.2-1.4h.1c.5-.1 1-.3 1.4.1l.7.6c.2.2.3.4.3.8.1.9.2 1.8.3 2.7v1q.1.1.1.2c.1-.3.3-.6.4-.9.3-1 .7-1.8 1.2-2.6.6-1 1.2-1.7 2.1-2.1.8-.4 2.1-.3 2.7.4.3.4.5.9.5 1.4v1.6c.2 1.1 0 2.2-.1 3.3-.1.5-.3 1.7.1 2 .2.2.7-.7 1.1-1.3.2-.3.6-1.1.8-1.4.1-.1.4-.9.6-1 .1 0 .1-.1.1-.1.2-.4.3-.5.6-.8.1-.1.2-.1.3-.1.2-.2.3-.3.5-.5s.3-.5.5-.8q.1-.1.2 0c-.1 0-.2.3-.2.4z"/><path d="m40.3 20.6s-.2.1-.3.1c-.3-.1-.6 0-.9.1-.2 0-.4.1-.6.1h-.5c-.5.1-1 .2-1.5.4-.3.1-.3 2.4-.4 2.7-.2 1.5-.4 3.6-1.2 4.9 0 .2-.2.5-.3.8 0 .5-.4.9-.7 1.3 0 .1-.2.3-.3.5-.2.3-.5.6-.8 1s-.7.7-1 .9c-.2.2-.4.3-.7.5-.1 0-.2.2-.4.2-.3 0-.5 0-.7.2h-.1c-.3 0-.5 0-.7 0-.3 0-.5 0-.8 0h-.1c-.4 0-.8 0-1.1 0-.1 0-.2 0-.3 0-.3 0-.6 0-.8-.2-.6-.2-1-.6-1.4-1.2-.2-.3-.4-.7-.7-1.2-.3-.6-.3-1.2-.4-1.9 0-.6.1-1.3.3-2v-.3c.1 0 .1-.1.1-.1.3-.8.6-1.6 1.3-2.3 1-1 2.3-1.8 3.3-2.5 1.3-.8 2.7-1.3 4.1-1.7.3-.1.7-.2 1.1-.3q0 0 0-.1c0-.3 0-.7 0-1.1 0-.8 0-1.7 0-2.6v-.8-.5c0 .2-.3.5-.5.6l-.2.2c-.3.2-.5.5-.7.7l-.5.5q0 .1-.2.1h-.1c-.1.1-.2.1-.3.3-.4.4-.9.5-1.4.3h-.2c-.1 0-.2-.1-.4-.1-1.2-.1-1.9-1.7-1.9-3v-.7c-.1-1.3.2-2.6.5-3.8v-.4c.2-.4.3-.9.4-1.4.1-.2.6-.2.8-.2.3 0 .6.1 1 .2.3.1.6.6.5 1-.1.6-.2 1.2-.3 1.8v.3c0 .5-.1.9-.1 1.4v.7s0 .8 0 .8c-.1.6-.1 1.1-.1 1.7 0 .2 0 .3.1.5 0 .1.1.1.1.1h.1c.1 0 .2-.1.3-.2.7-.6 1.2-1.3 1.6-1.8l.3-.3.2-.2c.2-.2.3-.5.5-.7l.4-.6c.2-.3.3-.6.5-.8 0-.2.2-.4.2-.6 0-.7 0-1.4.3-2.1 0-.2 0-.4 0-.7s0-.2.2-.2h.4s.2 0 .3.1c.6.1.9.5 1 1v.3.4.8.5 1.4 1.2 1.7 1.2.5 1.2.5.3.1c1.1-.2 2.2-.2 3.2-.2h.4c.2 0 .3.2.3.3 0 .2 0 .3-.3.4zm-6.5 1.1q0 0-.2.1c-.3.1-.7.3-1 .4s-.8.2-1.1.4l-.6.2c-.5.2-1.1.4-1.6.8l-1.2.8c-.6.4-1.2.9-1.6 1.2q-.1.1-.1.2c-.1.3-.3.5-.5.7s-.3.3-.3.5c-.3.5-.4 1-.6 1.6 0 .1 0 .2-.1.3-.1.3-.1.7-.1 1.1v.3c0 .7.1 1.2.4 1.7.2.5.6.8 1.1 1 .4 0 .8.2 1.2.2h.4c.6 0 1.2-.3 1.6-.6.4-.2.8-.6 1-.8.3-.3.6-.7.8-1 .3-.4.6-.8.8-1.3l.4-1c0-.2 0-.4.2-.6.6-1.3.7-2.6.9-4.1 0-.4 0-.8.2-1.1 0-.2 0-.4 0-.6s0-.4-.1-.4z"/><path d="m37.3 47c2.5 0 4.1-1.4 5.4-3.9v2.8c0 .4.4.6.8.6h3.8c.4 0 .6-.3.6-.6v-31c0-.4-.3-.6-.6-.6h-4.5c-.4 0-.6.3-.6.6v11.5c-1.1-2.2-2.8-3.4-5.1-3.4-4.2 0-6.9 4.4-6.9 12-.1 5.7 1.6 12 7.1 12m1.9-4.3c-2.8 0-3-4.4-3-7.8s0-7.6 2.9-7.6 3 4.9 3 7.7-.1 7.7-2.9 7.7"/><path d="m227.4 23.4v1.4h.3v-.6h.5c.1.1.1.2.1.3 0 .1.2.1.2.1v-.2q0-.2-.1-.3t-.2-.1c.1 0 .2 0 .2-.1.1-.1.1-.2.1-.3 0-.2-.1-.3-.2-.4-.1 0-.2-.1-.4-.1h-.5zm.9.5c0 .1 0 .2-.1.2h-.4v-.5h.2c.1 0 .2 0 .3.1-.1 0 0 0 0 .2m.9.3c0-.4-.1-.7-.4-.9-.3-.3-.6-.4-.9-.4s-.7.1-.9.4c-.3.3-.4.6-.4.9s.1.7.4.9c.3.3.6.4.9.4s.7-.1.9-.4c.3-.3.4-.6.4-.9m-1.3-1.2c.3 0 .6.1.8.3s.3.5.3.8-.1.6-.3.8-.5.3-.8.3-.6-.1-.8-.3-.3-.5-.3-.8.1-.6.3-.8.5-.3.8-.3"/></g></svg>